<svg width="200" height="200" viewBox="0 0 200 200" fill="none" xmlns="http://www.w3.org/2000/svg">
<path d="M1.5 198.5H198.5V1.5H1.5V198.5Z" fill="url(#paint0_linear)" stroke="black" stroke-width="3"/>
<path d="M77 46.5H76.5V47V55.0781H71.252H70.752V55.5781V148V148.5H71.252H76.5V155V155.5H77H90H90.5V155V148.5H98.5V155V155.5H99H112H112.5V155V148.249C120.536 147.526 126.963 145.258 131.741 141.407C137.556 136.721 140.434 129.833 140.434 120.832C140.434 115.535 139.032 111.023 136.206 107.327C133.695 103.992 130.335 101.672 126.148 100.361C129.753 98.7162 132.629 96.3238 134.761 93.1832L134.763 93.1809C137.15 89.6215 138.339 85.5238 138.339 80.9053C138.339 72.4801 135.386 66.0345 129.44 61.651C125.185 58.483 119.529 56.4731 112.5 55.5934V47V46.5H112H99H98.5V47V55.0781H90.5V47V46.5H90H77ZM114.809 74.1917L114.809 74.1918L114.816 74.1976C117.1 75.8907 118.296 78.7152 118.296 82.8096C118.296 86.4394 117.138 89.1095 114.882 90.9086C112.604 92.7251 109.131 93.7146 104.382 93.7988H90.7949V71.5029H103.625C108.834 71.5029 112.528 72.4309 114.809 74.1917ZM106.608 132.202H90.7949V108.256H107.747C112.052 108.319 115.191 109.405 117.256 111.429C119.318 113.452 120.391 116.492 120.391 120.642C120.391 124.282 119.17 127.097 116.759 129.147C114.381 131.162 111.02 132.202 106.608 132.202Z" fill="url(#paint1_linear)" stroke="black"/>
<defs>
<linearGradient id="paint0_linear" x1="190.666" y1="499.999" x2="190.666" y2="-299.999" gradientUnits="userSpaceOnUse">
<stop stop-color="#0B225B"/>
<stop offset="0.0001" stop-color="#4D0EB5"/>
<stop offset="0.9999" stop-color="#1728C4"/>
<stop offset="1" stop-color="#66039B" stop-opacity="0.937861"/>
</linearGradient>
<linearGradient id="paint1_linear" x1="128.5" y1="28" x2="128.5" y2="142" gradientUnits="userSpaceOnUse">
<stop stop-color="#FFD159"/>
<stop offset="0.989583" stop-color="#FBB501"/>
</linearGradient>
</defs>
</svg>
