<svg width="200" height="200" viewBox="0 0 200 200" fill="none" xmlns="http://www.w3.org/2000/svg">
<path d="M1.5 198.5H198.5V1.5H1.5V198.5Z" fill="url(#paint0_linear)" stroke="black" stroke-width="3"/>
<g filter="url(#filter0_d)">
<path d="M63.25 84.0039C68.6434 84.0039 73.3941 82.7947 77.3171 81.2516C73.3343 87.4066 70.9479 94.5314 70.4743 101.879C54.5497 103.283 42.0625 114.256 42.0625 127.703C42.0625 142.097 56.319 154 73.8438 154C79.2427 154 84.4145 152.751 89.053 150.661C81.8571 144.867 77.375 136.614 77.375 127.703C77.375 118.792 81.8571 110.733 89.053 104.939C85.4812 103.329 81.5895 102.235 77.5258 101.81C79.0615 81.309 97.9114 64.3991 122.215 61.3136C116.026 68.4513 112.688 76.9682 112.688 85.9103V101.893C96.8401 103.357 84.4375 114.302 84.4375 127.703C84.4375 142.097 98.694 154 116.219 154C133.743 154 148 142.097 148 127.703C148 114.302 135.597 103.357 119.75 101.893V85.9103C119.75 76.1041 124.399 66.8848 132.84 59.9511L138.868 55H130.344C113.758 55 98.7262 60.5553 87.8501 69.5163C84.9948 67.2647 75.8393 60.8008 63.25 60.8008C48.3525 60.8008 38.1588 69.9181 37.6659 70.3064L35 72.4023L37.6659 74.4983C38.1588 74.8866 48.3525 84.0039 63.25 84.0039ZM116.219 119.002C110.377 119.002 105.625 122.905 105.625 127.703H98.5625C98.5625 119.707 106.484 113.201 116.219 113.201V119.002ZM73.8438 119.002C68.0025 119.002 63.25 122.905 63.25 127.703H56.1875C56.1875 119.707 64.1089 113.201 73.8438 113.201V119.002Z" fill="url(#paint1_linear)"/>
<path d="M77.7368 81.5232L78.5823 80.2166L77.134 80.7863C73.256 82.3117 68.5679 83.5039 63.25 83.5039C49.186 83.5039 39.3633 75.2682 38.0949 74.2047C38.0372 74.1563 37.9972 74.1228 37.9753 74.1055L37.9749 74.1053L35.809 72.4023L37.9749 70.6994L37.9753 70.6992C37.9972 70.6819 38.0372 70.6484 38.0949 70.6C39.3633 69.5365 49.186 61.3008 63.25 61.3008C75.6724 61.3008 84.718 67.6832 87.5405 69.9089L87.857 70.1585L88.1681 69.9022C98.9498 61.0189 113.868 55.5 130.344 55.5H137.472L132.523 59.5647C123.98 66.5812 119.25 75.9362 119.25 85.9103V101.893V102.349L119.704 102.391C135.385 103.84 147.5 114.642 147.5 127.703C147.5 141.738 133.559 153.5 116.219 153.5C98.8787 153.5 84.9375 141.738 84.9375 127.703C84.9375 114.642 97.0523 103.84 112.734 102.391L113.188 102.349V101.893V85.9103C113.188 77.0979 116.476 68.6953 122.593 61.6412L123.45 60.6529L122.152 60.8176C97.6809 63.9243 78.5854 80.9722 77.0272 101.772L76.9909 102.256L77.4738 102.307C81.2031 102.697 84.7867 103.659 88.1067 105.07C81.1839 110.901 76.875 118.88 76.875 127.703C76.875 136.523 81.1813 144.686 88.1073 150.529C83.7204 152.397 78.8804 153.5 73.8438 153.5C56.5037 153.5 42.5625 141.738 42.5625 127.703C42.5625 114.598 54.7602 103.767 70.5183 102.377L70.9457 102.339L70.9733 101.911C71.4413 94.65 73.7999 87.6075 77.7368 81.5232ZM116.219 119.502H116.719V119.002V113.201V112.701H116.219C106.304 112.701 98.0625 119.344 98.0625 127.703V128.203H98.5625H105.625H106.125V127.703C106.125 123.269 110.557 119.502 116.219 119.502ZM73.8438 119.502H74.3438V119.002V113.201V112.701H73.8438C63.9293 112.701 55.6875 119.344 55.6875 127.703V128.203H56.1875H63.25H63.75V127.703C63.75 123.269 68.1821 119.502 73.8438 119.502Z" stroke="black"/>
</g>
<defs>
<filter id="filter0_d" x="31" y="55" width="121" height="107" filterUnits="userSpaceOnUse" color-interpolation-filters="sRGB">
<feFlood flood-opacity="0" result="BackgroundImageFix"/>
<feColorMatrix in="SourceAlpha" type="matrix" values="0 0 0 0 0 0 0 0 0 0 0 0 0 0 0 0 0 0 127 0"/>
<feOffset dy="4"/>
<feGaussianBlur stdDeviation="2"/>
<feColorMatrix type="matrix" values="0 0 0 0 0 0 0 0 0 0 0 0 0 0 0 0 0 0 0.44 0"/>
<feBlend mode="normal" in2="BackgroundImageFix" result="effect1_dropShadow"/>
<feBlend mode="normal" in="SourceGraphic" in2="effect1_dropShadow" result="shape"/>
</filter>
<linearGradient id="paint0_linear" x1="190.666" y1="499.999" x2="190.666" y2="-299.999" gradientUnits="userSpaceOnUse">
<stop stop-color="#0B225B"/>
<stop offset="0.0001" stop-color="#4D0EB5"/>
<stop offset="0.9999" stop-color="#1728C4"/>
<stop offset="1" stop-color="#66039B" stop-opacity="0.937861"/>
</linearGradient>
<linearGradient id="paint1_linear" x1="91.5" y1="55" x2="91.5" y2="154" gradientUnits="userSpaceOnUse">
<stop offset="0.177083" stop-color="#78E966"/>
<stop offset="0.604167" stop-color="#FF0000"/>
</linearGradient>
</defs>
</svg>
