<svg width="200" height="200" viewBox="0 0 200 200" fill="none" xmlns="http://www.w3.org/2000/svg">
<path d="M1.5 198.5H198.5V1.5H1.5V198.5Z" fill="url(#paint0_linear)" stroke="black" stroke-width="3"/>
<path d="M97.7412 79.948C98.7045 74.3638 104.175 70.22 110.723 70.22C117.962 70.22 123.853 75.362 123.853 81.6823C123.853 88.0025 117.963 93.1448 110.723 93.1448C107.157 93.1591 103.729 91.894 101.188 89.6255M97.7412 79.948C99.9898 82.4145 101.222 85.5136 101.225 88.7136C101.225 89.0201 101.21 89.3245 101.188 89.6255M97.7412 79.948L98.2339 80.033C98.2475 79.9541 98.2621 79.8756 98.2776 79.7973M97.7412 79.948L98.1107 79.6111C98.1669 79.6728 98.2226 79.7349 98.2776 79.7973M101.188 89.6255L101.687 89.6619C101.693 89.5792 101.699 89.4959 101.703 89.412M101.188 89.6255L101.521 89.2525C101.581 89.3063 101.642 89.3594 101.703 89.412M101.703 89.412C101.717 89.1831 101.725 88.9498 101.725 88.7136V88.713C101.722 85.4632 100.5 82.3207 98.2776 79.7973M101.703 89.412C104.128 91.4942 107.357 92.6583 110.721 92.6448L110.723 92.6448C117.753 92.6448 123.353 87.6648 123.353 81.6823C123.353 75.6998 117.752 70.72 110.723 70.72C104.463 70.72 99.3035 74.6159 98.2776 79.7973M124.987 143.688L124.986 144.188C132.227 144.188 138.117 139.046 138.117 132.726C138.118 131.896 138.02 131.07 137.826 130.26C137.672 130.332 137.518 130.403 137.362 130.47M124.987 143.688C132.017 143.688 137.617 138.708 137.617 132.726V132.725C137.618 131.968 137.532 131.212 137.362 130.47M124.987 143.688C122.244 143.686 119.578 142.91 117.356 141.48M124.987 143.688L117.356 141.48M137.362 130.47C137.324 130.306 137.282 130.142 137.236 129.98C134.997 130.97 132.535 131.483 130.039 131.479M137.362 130.47C135.078 131.467 132.574 131.983 130.038 131.979M130.038 131.979C130.038 131.979 130.039 131.979 130.039 131.979L130.039 131.479M130.038 131.979C127.541 131.98 125.073 131.477 122.814 130.503C121.177 129.798 119.679 128.858 118.376 127.723C119.385 129.684 119.894 131.839 119.85 134.026C119.796 136.68 118.929 139.26 117.356 141.48M130.038 131.979C130.038 131.979 130.038 131.979 130.038 131.979L130.039 131.479M130.039 131.479L117.356 141.48M125.595 88.0932C130.505 89.6935 133.754 93.7553 133.754 98.3497C133.754 104.332 128.154 109.312 121.124 109.312C114.094 109.312 108.493 104.332 108.493 98.3497L125.595 88.0932ZM125.595 88.0932C124.225 90.522 122.157 92.5655 119.615 94.009C116.947 95.524 113.862 96.3177 110.721 96.301C110.721 96.301 110.72 96.301 110.72 96.301L110.723 95.801L125.595 88.0932ZM77.9006 101.848C78.1697 104.625 79.3741 106.995 81.6285 109.269C79.5026 112.898 75.1186 115.302 70.3058 115.303L77.9006 101.848ZM77.9006 101.848C75.9516 101.015 74.2004 99.8365 72.7507 98.3795C71.3237 96.9453 70.218 95.27 69.4973 93.4476C62.883 94.0671 57.675 98.8749 57.675 104.341C57.675 110.323 63.2755 115.303 70.3057 115.303L77.9006 101.848ZM105.967 127.021L105.965 127.021C103.972 127.027 102.006 126.614 100.222 125.816C98.4386 125.019 96.8879 123.859 95.6892 122.432C94.7025 121.25 94.004 119.896 93.636 118.46C93.3036 117.162 93.2469 115.821 93.4673 114.507C93.7679 114.523 94.0711 114.532 94.3771 114.532C100.023 114.532 105.508 111.95 108.672 107.974C111.126 110.438 114.402 112.098 117.993 112.702C118.395 113.784 118.599 114.917 118.598 116.058V116.059C118.598 122.041 112.997 127.021 105.967 127.021ZM119.098 116.059C119.098 122.379 113.207 127.521 105.967 127.521L119.098 116.059ZM82.1304 103.084C83.131 103.249 84.1463 103.332 85.1642 103.333H85.1644C92.3895 103.333 98.5891 99.2188 100.831 93.4448C102.086 94.2575 103.458 94.909 104.907 95.3814C104.162 98.5524 104.633 101.86 106.241 104.753C104.063 108.315 99.2427 110.875 94.3768 110.875L94.3742 110.875C91.0229 110.892 87.8047 109.722 85.4037 107.625C83.6583 106.096 82.6251 104.657 82.1304 103.084ZM115.923 133.767V133.767C115.923 139.75 110.322 144.73 103.292 144.73C96.2618 144.73 90.661 139.75 90.6606 133.768C90.6624 132.306 90.9964 130.859 91.6438 129.516C92.2301 128.299 93.0626 127.191 94.0997 126.248C96.7386 128.615 100.16 130.128 103.836 130.553C107.511 130.979 111.236 130.295 114.439 128.61C115.415 130.186 115.926 131.962 115.923 133.767ZM131.82 74.3659H131.822C138.852 74.3659 144.453 79.3457 144.453 85.3282C144.453 89.5501 141.629 93.3953 137.298 95.2079C136.694 92.8156 135.441 90.5998 133.652 88.7631C131.83 86.8914 129.516 85.479 126.935 84.6522C127.648 81.6297 127.255 78.4795 125.821 75.6822C127.67 74.8132 129.728 74.3597 131.82 74.3659ZM130.039 128.323H130.038C128.02 128.327 126.03 127.902 124.229 127.083C122.553 126.322 121.086 125.24 119.926 123.918C121.112 122.287 121.919 120.449 122.291 118.516C122.648 116.664 122.598 114.768 122.147 112.938C124.491 112.817 126.785 112.247 128.876 111.261C131.053 110.236 132.956 108.786 134.448 107.014C136.803 107.728 138.854 109.081 140.323 110.884C141.855 112.764 142.675 115.035 142.67 117.359V117.36C142.67 123.343 137.069 128.323 130.039 128.323ZM124.986 147.344H124.986C125.051 147.344 125.116 147.343 125.18 147.342C125.55 148.427 125.736 149.556 125.73 150.691V150.694C125.73 156.676 120.129 161.656 113.099 161.656C106.069 161.656 100.468 156.677 100.47 150.695V150.695C100.469 149.86 100.578 149.028 100.795 148.216C101.622 148.328 102.456 148.385 103.292 148.386C107.563 148.398 111.679 146.926 114.797 144.271C117.743 146.262 121.315 147.339 124.986 147.344ZM108.493 98.3497C108.493 97.6253 108.576 96.903 108.739 96.1942L108.493 98.3497ZM85.1644 77.7513C92.1946 77.7513 97.7949 82.7311 97.7949 88.7139C97.7949 94.6964 92.1946 99.6761 85.1644 99.6761C78.1341 99.6761 72.5332 94.6966 72.5332 88.7139C72.5332 82.7311 78.1341 77.7513 85.1644 77.7513ZM143.105 96.0219C144.126 97.7779 144.583 99.7582 144.421 101.738C144.257 103.736 143.469 105.653 142.148 107.265C140.552 105.755 138.618 104.577 136.482 103.809C137.179 102.286 137.579 100.661 137.662 99.0094C139.67 98.3429 141.519 97.3287 143.105 96.0219ZM70.6165 118.955C76.3929 118.859 81.7245 116.069 84.6308 111.73C86.1383 112.703 87.8131 113.439 89.5854 113.909C89.0356 117.192 89.7626 120.544 91.6345 123.387C90.229 124.61 89.078 126.057 88.2407 127.66C86.5951 128.242 84.847 128.555 83.078 128.584C79.9463 128.6 76.9272 127.557 74.6101 125.668C72.4488 123.906 71.0456 121.53 70.6165 118.955Z" fill="url(#paint1_linear)" stroke="black"/>
<mask id="path-3-inside-1" fill="white">
<path d="M66.1361 82.1258C66.4407 82.179 66.7188 82.3188 66.9301 82.5248C67.1413 82.7309 67.2748 82.9925 67.3112 83.2719C67.3476 83.5513 67.285 83.8339 67.1324 84.0789C66.9799 84.3239 66.7453 84.5185 66.4627 84.6346L66.4645 84.6378C60.5201 87.0988 59.7288 90.4816 60.3089 93.549C62.8774 91.7253 65.9633 90.5988 69.209 90.3001C69.1405 89.7736 69.1057 89.244 69.1047 88.7138C69.1047 80.9289 76.3097 74.5951 85.1655 74.5951C87.0807 74.5936 88.9814 74.8957 90.7818 75.4878C90.7103 75.2852 90.6337 75.0735 90.5521 74.8527C87.5545 73.0783 84.2231 71.8179 80.7236 71.134C72.7281 69.592 65.2372 71.4161 58.4579 76.5546C58.1598 76.7805 57.775 76.8898 57.388 76.8585C57.001 76.8271 56.6436 76.6576 56.3944 76.3874C56.1452 76.1171 56.0247 75.7681 56.0593 75.4173C56.0938 75.0664 56.2807 74.7424 56.5788 74.5164C65.9746 67.3961 75.2931 67.3472 81.456 68.5595C84.0296 69.0714 86.5248 69.866 88.8862 70.9257C88.1054 69.2935 87.2251 67.7019 86.2495 66.1583C85.4058 64.8228 84.4866 63.5278 83.4956 62.2783C82.438 61.5943 76.0721 57.6277 69.7944 57.0062C70.7046 57.9505 71.1127 58.9011 71.0084 59.847C70.9862 60.0507 70.9123 60.2469 70.7926 60.4204C70.6729 60.5939 70.5106 60.74 70.3184 60.8472C70.1262 60.9545 69.9092 61.02 69.6845 61.0387C69.4597 61.0574 69.2332 61.0287 69.0227 60.955C68.9471 60.9284 61.133 58.2891 53.9823 61.5967C49.344 63.7422 45.9347 67.9085 43.8321 73.9953C45.4098 73.4785 47.0594 73.1642 48.7331 73.0616C49.0291 73.0486 49.3224 73.1173 49.5744 73.2586C49.8264 73.3999 50.0253 73.6072 50.1447 73.853C50.264 74.0989 50.2984 74.3718 50.2432 74.6358C50.1879 74.8997 50.0457 75.1423 49.8353 75.3314C49.7333 75.4233 39.9573 84.4067 41.2141 96.1628C43.5036 94.2415 47.4511 91.0431 51.6086 88.194C61.6296 81.3287 65.0213 81.9287 66.1361 82.1258Z"/>
<path d="M88.8379 64.9122C91.2699 68.7482 93.1247 72.8621 94.3528 77.1443C94.6724 77.3411 94.985 77.5467 95.2873 77.7629C95.9173 75.8274 97.0048 74.0395 98.4742 72.5237C97.9777 70.9855 96.4595 66.962 92.9518 62.3051C88.8939 56.9177 81.267 49.5618 67.9044 44.9136L66.3704 47.2511C75.6221 50.1613 83.3764 56.2515 88.8379 64.9122Z"/>
<path d="M132.943 46.5984C132.639 46.5781 132.351 46.4726 132.116 46.2968C131.882 46.1209 131.714 45.8833 131.636 45.617C131.557 45.3506 131.572 45.0687 131.678 44.8104C131.784 44.552 131.976 44.33 132.228 44.1751C133.8 43.2516 135.501 42.521 137.285 42.0026C129.629 38.189 122.552 36.9892 116.23 38.4368C107.577 40.4179 103.349 46.7321 103.307 46.7953C103.199 46.9602 103.053 47.1021 102.879 47.2109C102.705 47.3198 102.506 47.3932 102.298 47.426C102.089 47.4588 101.876 47.4503 101.671 47.401C101.467 47.3518 101.276 47.2629 101.113 47.1406C100.375 46.586 99.6423 45.5596 99.7568 43.6875C94.8022 47.5977 92.374 54.4585 91.7266 56.5482C93.0661 57.9355 94.3111 59.3954 95.4549 60.9199C96.4879 62.2982 97.4344 63.7282 98.2899 65.2031C99.0114 63.203 100.068 61.3155 101.423 59.6069C107.678 51.7378 118.449 50.0826 126.384 50.0795C126.772 50.0795 127.145 50.2194 127.42 50.4685C127.694 50.7175 127.849 51.0553 127.849 51.4076C127.849 51.7598 127.694 52.0976 127.42 52.3467C127.145 52.5958 126.772 52.7357 126.384 52.7357C115.908 52.7397 108.337 55.5383 103.884 61.054C101.955 63.4428 100.722 66.2338 100.298 69.1691C100.514 69.6682 100.697 70.1235 100.85 70.5273C104.277 68.2044 108.568 67.1857 112.811 67.6881C117.054 68.1904 120.912 70.1741 123.566 73.217C123.62 73.1887 123.674 73.1607 123.728 73.1331C128.711 66.995 135.14 67.637 141.504 69.4212C139.225 66.3017 134.51 62.1303 126.252 63.9451V63.9416C126.139 63.9675 126.024 63.9813 125.907 63.9825C125.625 63.9824 125.348 63.9083 125.111 63.769C124.874 63.6298 124.687 63.4314 124.571 63.1977C124.456 62.964 124.417 62.705 124.46 62.452C124.503 62.1989 124.626 61.9625 124.814 61.7712C125.61 60.9603 128.033 58.4929 142.665 57.9165C148.896 57.6713 155.255 57.8426 158.898 57.9903C149.693 47.8538 133.116 46.6093 132.943 46.5984ZM143.973 53.4845C143.885 53.824 143.653 54.1185 143.327 54.3044C143.002 54.4902 142.609 54.5524 142.233 54.4777C139.3 53.885 136.335 53.4293 133.35 53.1124C132.968 53.0687 132.62 52.8902 132.382 52.6157C132.144 52.3412 132.035 51.9927 132.078 51.6457C132.121 51.2986 132.314 50.981 132.613 50.7615C132.913 50.5421 133.296 50.4385 133.679 50.4731C136.763 50.8001 139.827 51.2706 142.858 51.8828C143.048 51.9206 143.228 51.9921 143.387 52.0934C143.546 52.1946 143.681 52.3234 143.785 52.4725C143.889 52.6215 143.959 52.7877 143.991 52.9614C144.023 53.1351 144.017 53.3129 143.973 53.4845Z"/>
</mask>
<g filter="url(#filter0_i)">
<path d="M66.1361 82.1258C66.4407 82.179 66.7188 82.3188 66.9301 82.5248C67.1413 82.7309 67.2748 82.9925 67.3112 83.2719C67.3476 83.5513 67.285 83.8339 67.1324 84.0789C66.9799 84.3239 66.7453 84.5185 66.4627 84.6346L66.4645 84.6378C60.5201 87.0988 59.7288 90.4816 60.3089 93.549C62.8774 91.7253 65.9633 90.5988 69.209 90.3001C69.1405 89.7736 69.1057 89.244 69.1047 88.7138C69.1047 80.9289 76.3097 74.5951 85.1655 74.5951C87.0807 74.5936 88.9814 74.8957 90.7818 75.4878C90.7103 75.2852 90.6337 75.0735 90.5521 74.8527C87.5545 73.0783 84.2231 71.8179 80.7236 71.134C72.7281 69.592 65.2372 71.4161 58.4579 76.5546C58.1598 76.7805 57.775 76.8898 57.388 76.8585C57.001 76.8271 56.6436 76.6576 56.3944 76.3874C56.1452 76.1171 56.0247 75.7681 56.0593 75.4173C56.0938 75.0664 56.2807 74.7424 56.5788 74.5164C65.9746 67.3961 75.2931 67.3472 81.456 68.5595C84.0296 69.0714 86.5248 69.866 88.8862 70.9257C88.1054 69.2935 87.2251 67.7019 86.2495 66.1583C85.4058 64.8228 84.4866 63.5278 83.4956 62.2783C82.438 61.5943 76.0721 57.6277 69.7944 57.0062C70.7046 57.9505 71.1127 58.9011 71.0084 59.847C70.9862 60.0507 70.9123 60.2469 70.7926 60.4204C70.6729 60.5939 70.5106 60.74 70.3184 60.8472C70.1262 60.9545 69.9092 61.02 69.6845 61.0387C69.4597 61.0574 69.2332 61.0287 69.0227 60.955C68.9471 60.9284 61.133 58.2891 53.9823 61.5967C49.344 63.7422 45.9347 67.9085 43.8321 73.9953C45.4098 73.4785 47.0594 73.1642 48.7331 73.0616C49.0291 73.0486 49.3224 73.1173 49.5744 73.2586C49.8264 73.3999 50.0253 73.6072 50.1447 73.853C50.264 74.0989 50.2984 74.3718 50.2432 74.6358C50.1879 74.8997 50.0457 75.1423 49.8353 75.3314C49.7333 75.4233 39.9573 84.4067 41.2141 96.1628C43.5036 94.2415 47.4511 91.0431 51.6086 88.194C61.6296 81.3287 65.0213 81.9287 66.1361 82.1258Z" fill="#479968"/>
<path d="M88.8379 64.9122C91.2699 68.7482 93.1247 72.8621 94.3528 77.1443C94.6724 77.3411 94.985 77.5467 95.2873 77.7629C95.9173 75.8274 97.0048 74.0395 98.4742 72.5237C97.9777 70.9855 96.4595 66.962 92.9518 62.3051C88.8939 56.9177 81.267 49.5618 67.9044 44.9136L66.3704 47.2511C75.6221 50.1613 83.3764 56.2515 88.8379 64.9122Z" fill="#479968"/>
<path d="M132.943 46.5984C132.639 46.5781 132.351 46.4726 132.116 46.2968C131.882 46.1209 131.714 45.8833 131.636 45.617C131.557 45.3506 131.572 45.0687 131.678 44.8104C131.784 44.552 131.976 44.33 132.228 44.1751C133.8 43.2516 135.501 42.521 137.285 42.0026C129.629 38.189 122.552 36.9892 116.23 38.4368C107.577 40.4179 103.349 46.7321 103.307 46.7953C103.199 46.9602 103.053 47.1021 102.879 47.2109C102.705 47.3198 102.506 47.3932 102.298 47.426C102.089 47.4588 101.876 47.4503 101.671 47.401C101.467 47.3518 101.276 47.2629 101.113 47.1406C100.375 46.586 99.6423 45.5596 99.7568 43.6875C94.8022 47.5977 92.374 54.4585 91.7266 56.5482C93.0661 57.9355 94.3111 59.3954 95.4549 60.9199C96.4879 62.2982 97.4344 63.7282 98.2899 65.2031C99.0114 63.203 100.068 61.3155 101.423 59.6069C107.678 51.7378 118.449 50.0826 126.384 50.0795C126.772 50.0795 127.145 50.2194 127.42 50.4685C127.694 50.7175 127.849 51.0553 127.849 51.4076C127.849 51.7598 127.694 52.0976 127.42 52.3467C127.145 52.5958 126.772 52.7357 126.384 52.7357C115.908 52.7397 108.337 55.5383 103.884 61.054C101.955 63.4428 100.722 66.2338 100.298 69.1691C100.514 69.6682 100.697 70.1235 100.85 70.5273C104.277 68.2044 108.568 67.1857 112.811 67.6881C117.054 68.1904 120.912 70.1741 123.566 73.217C123.62 73.1887 123.674 73.1607 123.728 73.1331C128.711 66.995 135.14 67.637 141.504 69.4212C139.225 66.3017 134.51 62.1303 126.252 63.9451V63.9416C126.139 63.9675 126.024 63.9813 125.907 63.9825C125.625 63.9824 125.348 63.9083 125.111 63.769C124.874 63.6298 124.687 63.4314 124.571 63.1977C124.456 62.964 124.417 62.705 124.46 62.452C124.503 62.1989 124.626 61.9625 124.814 61.7712C125.61 60.9603 128.033 58.4929 142.665 57.9165C148.896 57.6713 155.255 57.8426 158.898 57.9903C149.693 47.8538 133.116 46.6093 132.943 46.5984ZM143.973 53.4845C143.885 53.824 143.653 54.1185 143.327 54.3044C143.002 54.4902 142.609 54.5524 142.233 54.4777C139.3 53.885 136.335 53.4293 133.35 53.1124C132.968 53.0687 132.62 52.8902 132.382 52.6157C132.144 52.3412 132.035 51.9927 132.078 51.6457C132.121 51.2986 132.314 50.981 132.613 50.7615C132.913 50.5421 133.296 50.4385 133.679 50.4731C136.763 50.8001 139.827 51.2706 142.858 51.8828C143.048 51.9206 143.228 51.9921 143.387 52.0934C143.546 52.1946 143.681 52.3234 143.785 52.4725C143.889 52.6215 143.959 52.7877 143.991 52.9614C144.023 53.1351 144.017 53.3129 143.973 53.4845Z" fill="#479968"/>
</g>
<path d="M66.1361 82.1258L65.962 83.1105L65.9639 83.1109L66.1361 82.1258ZM66.9301 82.5248L67.6283 81.809L67.6283 81.809L66.9301 82.5248ZM67.3112 83.2719L68.3028 83.1428V83.1428L67.3112 83.2719ZM67.1324 84.0789L66.2835 83.5504L66.2835 83.5504L67.1324 84.0789ZM66.4627 84.6346L66.0827 83.7096L65.0456 84.1357L65.5871 85.1176L66.4627 84.6346ZM66.4645 84.6378L66.847 85.5618L67.8801 85.134L67.3401 84.1549L66.4645 84.6378ZM60.3089 93.549L59.3263 93.7348L59.6161 95.2673L60.8879 94.3644L60.3089 93.549ZM69.209 90.3001L69.3006 91.2959L70.3346 91.2008L70.2006 90.1711L69.209 90.3001ZM69.1047 88.7138H68.1047L68.1047 88.7156L69.1047 88.7138ZM85.1655 74.5951V75.5951H85.1663L85.1655 74.5951ZM90.7818 75.4878L90.4693 76.4378L92.4017 77.0733L91.7248 75.1551L90.7818 75.4878ZM90.5521 74.8527L91.49 74.506L91.3669 74.173L91.0615 73.9922L90.5521 74.8527ZM80.7236 71.134L80.9154 70.1525L80.9129 70.1521L80.7236 71.134ZM58.4579 76.5546L59.062 77.3516L59.062 77.3515L58.4579 76.5546ZM57.388 76.8585L57.3072 77.8552H57.3072L57.388 76.8585ZM56.3944 76.3874L57.1296 75.7095L57.1296 75.7095L56.3944 76.3874ZM56.0593 75.4173L55.0641 75.3192H55.0641L56.0593 75.4173ZM56.5788 74.5164L55.9749 73.7194L55.9748 73.7195L56.5788 74.5164ZM81.456 68.5595L81.6511 67.5787L81.649 67.5783L81.456 68.5595ZM88.8862 70.9257L88.4768 71.8381L90.9656 72.9549L89.7883 70.4942L88.8862 70.9257ZM86.2495 66.1583L85.4041 66.6924L85.4042 66.6925L86.2495 66.1583ZM83.4956 62.2783L84.2791 61.6569L84.1768 61.528L84.0387 61.4386L83.4956 62.2783ZM69.7944 57.0062L69.8929 56.011L67.188 55.7432L69.0744 57.7002L69.7944 57.0062ZM71.0084 59.847L70.0144 59.7374L70.0143 59.7384L71.0084 59.847ZM70.7926 60.4204L71.6158 60.9883H71.6158L70.7926 60.4204ZM70.3184 60.8472L69.8312 59.974L69.8312 59.974L70.3184 60.8472ZM69.6845 61.0387L69.7673 62.0353L69.7673 62.0353L69.6845 61.0387ZM69.0227 60.955L68.6911 61.8984L68.692 61.8987L69.0227 60.955ZM53.9823 61.5967L53.5624 60.6891L53.5624 60.6891L53.9823 61.5967ZM43.8321 73.9953L42.8869 73.6688L42.2292 75.5726L44.1434 74.9456L43.8321 73.9953ZM48.7331 73.0616L48.6893 72.0626L48.6806 72.063L48.6719 72.0635L48.7331 73.0616ZM49.5744 73.2586L50.0635 72.3864H50.0635L49.5744 73.2586ZM50.1447 73.853L51.0442 73.4162L51.0442 73.4162L50.1447 73.853ZM49.8353 75.3314L49.1668 74.5877L49.1657 74.5886L49.8353 75.3314ZM41.2141 96.1628L40.2198 96.2691L40.4193 98.1352L41.8569 96.9288L41.2141 96.1628ZM51.6086 88.194L51.0434 87.369L51.0433 87.3691L51.6086 88.194ZM88.8379 64.9122L87.9921 65.4456L87.9933 65.4477L88.8379 64.9122ZM94.3528 77.1443L93.3915 77.4199L93.4984 77.7925L93.8284 77.9958L94.3528 77.1443ZM95.2873 77.7629L94.7056 78.5763L95.8158 79.3702L96.2382 78.0724L95.2873 77.7629ZM98.4742 72.5237L99.1922 73.2197L99.6105 72.7883L99.4259 72.2165L98.4742 72.5237ZM92.9518 62.3051L92.153 62.9068L92.9518 62.3051ZM67.9044 44.9136L68.233 43.9691L67.4963 43.7128L67.0684 44.3649L67.9044 44.9136ZM66.3704 47.2511L65.5344 46.7024L64.8088 47.8081L66.0704 48.205L66.3704 47.2511ZM132.943 46.5984L132.876 47.5962L132.88 47.5965L132.943 46.5984ZM131.636 45.617L132.595 45.3341V45.3341L131.636 45.617ZM131.678 44.8104L130.753 44.4304L130.753 44.4304L131.678 44.8104ZM132.228 44.1751L131.722 43.3129L131.713 43.3181L131.704 43.3236L132.228 44.1751ZM137.285 42.0026L137.564 42.9629L140.022 42.2487L137.731 41.1075L137.285 42.0026ZM116.23 38.4368L116.454 39.4116L116.454 39.4116L116.23 38.4368ZM103.307 46.7953L102.472 46.2455L102.47 46.2476L103.307 46.7953ZM102.879 47.2109L103.409 48.0589L103.409 48.0589L102.879 47.2109ZM102.298 47.426L102.453 48.4139H102.453L102.298 47.426ZM101.671 47.401L101.437 48.3732L101.437 48.3732L101.671 47.401ZM101.113 47.1406L100.513 47.9402L100.513 47.9404L101.113 47.1406ZM99.7568 43.6875L100.755 43.7485L100.891 41.5181L99.1373 42.9025L99.7568 43.6875ZM91.7266 56.5482L90.7714 56.2523L90.5963 56.8173L91.0072 57.2428L91.7266 56.5482ZM95.4549 60.9199L96.2551 60.3202L96.2548 60.3198L95.4549 60.9199ZM98.2899 65.2031L97.4249 65.7049L98.5022 67.5619L99.2306 65.5424L98.2899 65.2031ZM101.423 59.6069L100.64 58.9847L100.639 58.9856L101.423 59.6069ZM126.384 50.0795V49.0795H126.383L126.384 50.0795ZM127.42 50.4685L126.748 51.2093L126.748 51.2093L127.42 50.4685ZM127.42 52.3467L126.748 51.6059L126.748 51.6059L127.42 52.3467ZM126.384 52.7357V51.7357H126.384L126.384 52.7357ZM103.884 61.054L104.662 61.6822V61.6822L103.884 61.054ZM100.298 69.1691L99.3082 69.0262L99.2678 69.3063L99.3802 69.5662L100.298 69.1691ZM100.85 70.5273L99.915 70.8815L100.363 72.0653L101.411 71.355L100.85 70.5273ZM112.811 67.6881L112.929 66.695L112.811 67.6881ZM123.566 73.217L122.813 73.8743L123.334 74.4716L124.034 74.1008L123.566 73.217ZM123.728 73.1331L124.183 74.0237L124.371 73.9275L124.504 73.7633L123.728 73.1331ZM141.504 69.4212L141.234 70.3841L144.015 71.1639L142.311 68.8313L141.504 69.4212ZM126.252 63.9451H125.252V65.1887L126.467 64.9218L126.252 63.9451ZM126.252 63.9416H127.252V62.6859L126.028 62.967L126.252 63.9416ZM125.907 63.9825L125.907 64.9826L125.918 64.9825L125.907 63.9825ZM125.111 63.769L125.618 62.9068L125.618 62.9068L125.111 63.769ZM124.571 63.1977L125.468 62.7545L125.468 62.7545L124.571 63.1977ZM124.46 62.452L123.474 62.2842L123.474 62.2843L124.46 62.452ZM124.814 61.7712L125.527 62.4719L125.527 62.4718L124.814 61.7712ZM142.665 57.9165L142.625 56.9172L142.625 56.9172L142.665 57.9165ZM158.898 57.9903L158.858 58.9895L161.245 59.0862L159.639 57.318L158.898 57.9903ZM143.973 53.4845L144.941 53.7356L144.941 53.7336L143.973 53.4845ZM142.233 54.4777L142.035 55.4579L142.038 55.4584L142.233 54.4777ZM133.35 53.1124L133.237 54.1059L133.245 54.1068L133.35 53.1124ZM132.078 51.6457L133.07 51.7692L132.078 51.6457ZM132.613 50.7615L133.204 51.5683L133.204 51.5683L132.613 50.7615ZM133.679 50.4731L133.785 49.4787L133.777 49.4779L133.769 49.4772L133.679 50.4731ZM142.858 51.8828L142.66 52.863L142.663 52.8635L142.858 51.8828ZM143.387 52.0934L143.924 51.2497L143.924 51.2497L143.387 52.0934ZM143.785 52.4725L144.606 51.9013V51.9013L143.785 52.4725ZM143.991 52.9614L143.008 53.144L143.008 53.144L143.991 52.9614ZM65.9639 83.1109C66.0802 83.1312 66.172 83.1824 66.2319 83.2407L67.6283 81.809C67.2656 81.4552 66.8012 81.2269 66.3082 81.1407L65.9639 83.1109ZM66.2319 83.2407C66.2903 83.2978 66.3137 83.3558 66.3196 83.401L68.3028 83.1428C68.236 82.6293 67.9923 82.164 67.6283 81.809L66.2319 83.2407ZM66.3196 83.401C66.3253 83.4453 66.3172 83.4963 66.2835 83.5504L67.9813 84.6075C68.2528 84.1715 68.3698 83.6573 68.3028 83.1428L66.3196 83.401ZM66.2835 83.5504C66.2486 83.6065 66.1834 83.6683 66.0827 83.7096L66.8427 85.5596C67.3072 85.3688 67.7112 85.0413 67.9813 84.6075L66.2835 83.5504ZM65.5871 85.1176L65.5888 85.1207L67.3401 84.1549L67.3384 84.1517L65.5871 85.1176ZM66.082 83.7139C62.9828 84.997 61.0835 86.5793 60.0694 88.374C59.0491 90.1798 59.0082 92.0523 59.3263 93.7348L61.2915 93.3632C61.0296 91.9783 61.0943 90.6257 61.8107 89.358C62.5333 88.0792 64.0018 86.7397 66.847 85.5618L66.082 83.7139ZM60.8879 94.3644C63.3075 92.6463 66.2241 91.579 69.3006 91.2959L69.1174 89.3044C65.7025 89.6186 62.4473 90.8042 59.73 92.7336L60.8879 94.3644ZM70.2006 90.1711C70.1376 89.6867 70.1056 89.1996 70.1047 88.712L68.1047 88.7156C68.1058 89.2884 68.1434 89.8606 68.2174 90.4292L70.2006 90.1711ZM70.1047 88.7138C70.1047 81.5984 76.737 75.5951 85.1655 75.5951V73.5951C75.8824 73.5951 68.1047 80.2594 68.1047 88.7138H70.1047ZM85.1663 75.5951C86.9762 75.5937 88.7711 75.8792 90.4693 76.4378L91.0942 74.5379C89.1917 73.9122 87.1852 73.5935 85.1648 73.5951L85.1663 75.5951ZM91.7248 75.1551C91.6515 74.9474 91.5732 74.731 91.49 74.506L89.6141 75.1995C89.6942 75.4161 89.7691 75.6231 89.8387 75.8206L91.7248 75.1551ZM91.0615 73.9922C87.9633 72.1583 84.5242 70.8578 80.9154 70.1525L80.5318 72.1154C83.922 72.778 87.1456 73.9984 90.0427 75.7133L91.0615 73.9922ZM80.9129 70.1521C72.6249 68.5537 64.8479 70.4564 57.8539 75.7576L59.062 77.3515C65.6266 72.3758 72.8314 70.6304 80.5342 72.1159L80.9129 70.1521ZM57.8539 75.7576C57.7598 75.829 57.6209 75.8741 57.4687 75.8617L57.3072 77.8552C57.929 77.9056 58.5599 77.7321 59.062 77.3516L57.8539 75.7576ZM57.4687 75.8617C57.3168 75.8494 57.1983 75.784 57.1296 75.7095L55.6592 77.0652C56.0889 77.5313 56.6852 77.8048 57.3072 77.8552L57.4687 75.8617ZM57.1296 75.7095C57.0644 75.6388 57.0492 75.5689 57.0544 75.5154L55.0641 75.3192C55.0002 75.9674 55.226 76.5954 55.6592 77.0652L57.1296 75.7095ZM57.0544 75.5154C57.0599 75.4602 57.0916 75.3826 57.1829 75.3134L55.9748 73.7195C55.4699 74.1022 55.1278 74.6726 55.0641 75.3192L57.0544 75.5154ZM57.1828 75.3134C66.293 68.4095 75.299 68.3675 81.263 69.5407L81.649 67.5783C75.2872 66.3269 65.6562 66.3827 55.9749 73.7194L57.1828 75.3134ZM81.2609 69.5403C83.7618 70.0378 86.185 70.8096 88.4768 71.8381L89.2957 70.0134C86.8646 68.9225 84.2975 68.1051 81.6511 67.5788L81.2609 69.5403ZM89.7883 70.4942C88.9904 68.8263 88.0912 67.2005 87.0949 65.624L85.4042 66.6925C86.3591 68.2034 87.2204 69.7607 87.9842 71.3573L89.7883 70.4942ZM87.0949 65.6242C86.232 64.2583 85.2921 62.9341 84.2791 61.6569L82.7121 62.8997C83.6812 64.1215 84.5797 65.3874 85.4041 66.6924L87.0949 65.6242ZM84.0387 61.4386C82.9782 60.7528 76.4332 56.6586 69.8929 56.011L69.6958 58.0013C75.711 58.5969 81.8978 62.4359 82.9526 63.118L84.0387 61.4386ZM69.0744 57.7002C69.862 58.5172 70.075 59.1885 70.0144 59.7374L72.0024 59.9566C72.1505 58.6138 71.5472 57.3837 70.5143 56.3122L69.0744 57.7002ZM70.0143 59.7384C70.0106 59.7723 69.9978 59.8115 69.9695 59.8526L71.6158 60.9883C71.8268 60.6823 71.9617 60.3291 72.0025 59.9556L70.0143 59.7384ZM69.9695 59.8526C69.9408 59.8942 69.8956 59.938 69.8312 59.974L70.8057 61.7205C71.1257 61.542 71.4051 61.2936 71.6158 60.9883L69.9695 59.8526ZM69.8312 59.974C69.7665 60.01 69.6879 60.035 69.6016 60.0421L69.7673 62.0353C70.1305 62.0051 70.4858 61.8989 70.8057 61.7205L69.8312 59.974ZM69.6016 60.0421C69.5153 60.0493 69.4298 60.038 69.3534 60.0112L68.692 61.8987C69.0366 62.0195 69.4041 62.0655 69.7673 62.0353L69.6016 60.0421ZM69.3542 60.0115C69.26 59.9784 67.2038 59.2881 64.2427 59.0293C61.2852 58.7708 57.3516 58.9364 53.5624 60.6891L54.4021 62.5043C57.7637 60.9494 61.3125 60.7809 64.0686 61.0217C66.8212 61.2623 68.7098 61.9049 68.6911 61.8984L69.3542 60.0115ZM53.5624 60.6891C48.6164 62.9769 45.0537 67.396 42.8869 73.6688L44.7773 74.3218C46.8157 68.421 50.0715 64.5074 54.4021 62.5043L53.5624 60.6891ZM44.1434 74.9456C45.6393 74.4556 47.2048 74.1572 48.7943 74.0597L48.6719 72.0635C46.914 72.1712 45.1803 72.5014 43.5208 73.045L44.1434 74.9456ZM48.777 74.0607C48.8919 74.0556 49 74.083 49.0854 74.1309L50.0635 72.3864C49.6448 72.1516 49.1662 72.0416 48.6893 72.0626L48.777 74.0607ZM49.0854 74.1309C49.1701 74.1783 49.2201 74.2384 49.2451 74.2898L51.0442 73.4162C50.8304 72.9759 50.4828 72.6215 50.0635 72.3864L49.0854 74.1309ZM49.2451 74.2898C49.2692 74.3394 49.2736 74.3869 49.2644 74.4309L51.222 74.8406C51.3232 74.3567 51.2589 73.8584 51.0442 73.4162L49.2451 74.2898ZM49.2644 74.4309C49.2549 74.4762 49.2274 74.5331 49.1668 74.5877L50.5038 76.0751C50.864 75.7513 51.1209 75.3232 51.222 74.8406L49.2644 74.4309ZM49.1657 74.5886C49.0715 74.6736 46.5298 77.0141 44.1641 80.8479C41.801 84.6776 39.5589 90.0876 40.2198 96.2691L42.2084 96.0564C41.6124 90.4819 43.63 85.5222 45.8662 81.8981C46.9806 80.0921 48.1372 78.638 49.0202 77.6313C49.9042 76.6236 50.5066 76.0726 50.5048 76.0741L49.1657 74.5886ZM41.8569 96.9288C44.1355 95.0167 48.0548 91.8416 52.1739 89.0189L51.0433 87.3691C46.8474 90.2446 42.8718 93.4663 40.5713 95.3967L41.8569 96.9288ZM52.1738 89.019C57.1379 85.6181 60.397 84.1109 62.5041 83.4679C64.5635 82.8395 65.5264 83.0335 65.962 83.1105L66.3102 81.1411C65.631 81.021 64.3407 80.8164 61.9203 81.555C59.5476 82.2791 56.1004 83.9046 51.0434 87.369L52.1738 89.019ZM87.9933 65.4477C90.3753 69.2047 92.1902 73.2313 93.3915 77.4199L95.314 76.8686C94.0591 72.4929 92.1646 68.2917 89.6825 64.3768L87.9933 65.4477ZM93.8284 77.9958C94.1313 78.1823 94.4245 78.3752 94.7056 78.5763L95.869 76.9495C95.5455 76.7181 95.2135 76.4999 94.8771 76.2928L93.8284 77.9958ZM96.2382 78.0724C96.8193 76.2872 97.8248 74.6303 99.1922 73.2197L97.7562 71.8277C96.1848 73.4487 95.0153 75.3675 94.3364 77.4534L96.2382 78.0724ZM99.4259 72.2165C98.9038 70.5992 97.3404 66.4695 93.7505 61.7035L92.153 62.9068C95.5786 67.4546 97.0515 71.3717 97.5226 72.8309L99.4259 72.2165ZM93.7505 61.7035C89.5891 56.1786 81.8061 48.6905 68.233 43.9691L67.5759 45.8581C80.7279 50.433 88.1987 57.6568 92.153 62.9068L93.7505 61.7035ZM67.0684 44.3649L65.5344 46.7024L67.2065 47.7997L68.7405 45.4622L67.0684 44.3649ZM66.0704 48.205C75.0832 51.0401 82.6495 56.9736 87.9921 65.4456L89.6838 64.3788C84.1033 55.5294 76.161 49.2825 66.6705 46.2972L66.0704 48.205ZM133.01 45.6007C132.892 45.5928 132.79 45.5521 132.717 45.4971L131.516 47.0964C131.911 47.3931 132.387 47.5633 132.876 47.5962L133.01 45.6007ZM132.717 45.4971C132.645 45.4429 132.609 45.3824 132.595 45.3341L130.677 45.8998C130.819 46.3842 131.12 46.7989 131.516 47.0964L132.717 45.4971ZM132.595 45.3341C132.581 45.2876 132.583 45.2395 132.603 45.1904L130.753 44.4304C130.561 44.898 130.533 45.4137 130.677 45.8998L132.595 45.3341ZM132.603 45.1904C132.624 45.1393 132.67 45.0775 132.752 45.0267L131.704 43.3236C131.283 43.5825 130.944 43.9647 130.753 44.4304L132.603 45.1904ZM132.735 45.0374C134.234 44.1566 135.858 43.4586 137.564 42.9629L137.006 41.0423C135.144 41.5834 133.367 42.3466 131.722 43.3129L132.735 45.0374ZM137.731 41.1075C129.934 37.224 122.618 35.9483 116.007 37.4621L116.454 39.4116C122.486 38.0301 129.323 39.154 136.839 42.8977L137.731 41.1075ZM116.007 37.4621C106.979 39.5288 102.566 46.1029 102.472 46.2455L104.142 47.345C104.132 47.3612 108.174 41.307 116.454 39.4116L116.007 37.4621ZM102.47 46.2476C102.445 46.2864 102.405 46.3275 102.349 46.363L103.409 48.0589C103.7 47.8766 103.953 47.6341 104.144 47.3429L102.47 46.2476ZM102.349 46.363C102.292 46.3985 102.222 46.4257 102.142 46.4382L102.453 48.4139C102.791 48.3607 103.117 48.2411 103.409 48.0589L102.349 46.363ZM102.142 46.4382C102.063 46.4507 101.982 46.4473 101.905 46.4289L101.437 48.3732C101.769 48.4533 102.116 48.467 102.453 48.4139L102.142 46.4382ZM101.905 46.4289C101.829 46.4105 101.764 46.3786 101.714 46.3408L100.513 47.9404C100.789 48.1472 101.104 48.2931 101.437 48.3732L101.905 46.4289ZM101.714 46.3409C101.24 45.9849 100.661 45.2798 100.755 43.7485L98.7587 43.6264C98.6233 45.8394 99.5098 47.187 100.513 47.9402L101.714 46.3409ZM99.1373 42.9025C93.9221 47.0183 91.4231 54.1489 90.7714 56.2523L92.6818 56.8442C93.325 54.7682 95.6822 48.1771 100.376 44.4724L99.1373 42.9025ZM91.0072 57.2428C92.3183 58.6006 93.5364 60.029 94.655 61.52L96.2548 60.3198C95.0859 58.7617 93.8139 57.2703 92.4459 55.8536L91.0072 57.2428ZM94.6547 61.5196C95.6644 62.8669 96.5892 64.2642 97.4249 65.7049L99.1549 64.7013C98.2795 63.1922 97.3113 61.7295 96.2551 60.3202L94.6547 61.5196ZM99.2306 65.5424C99.9143 63.6468 100.917 61.8541 102.206 60.2282L100.639 58.9856C99.219 60.7768 98.1084 62.7592 97.3493 64.8638L99.2306 65.5424ZM102.206 60.2291C108.157 52.742 118.505 51.0826 126.384 51.0795L126.383 49.0795C118.393 49.0827 107.199 50.7335 100.64 58.9847L102.206 60.2291ZM126.384 51.0795C126.537 51.0795 126.667 51.1355 126.748 51.2093L128.091 49.7276C127.623 49.3032 127.008 49.0795 126.384 49.0795V51.0795ZM126.748 51.2093C126.826 51.2801 126.849 51.3539 126.849 51.4076H128.849C128.849 50.7567 128.563 50.155 128.091 49.7276L126.748 51.2093ZM126.849 51.4076C126.849 51.4612 126.826 51.5351 126.748 51.6059L128.091 53.0875C128.563 52.6602 128.849 52.0584 128.849 51.4076H126.849ZM126.748 51.6059C126.667 51.6796 126.537 51.7357 126.384 51.7357V53.7357C127.008 53.7357 127.623 53.5119 128.091 53.0875L126.748 51.6059ZM126.384 51.7357C115.754 51.7398 107.826 54.5798 103.106 60.4258L104.662 61.6822C108.848 56.4969 116.062 53.7396 126.384 53.7357L126.384 51.7357ZM103.106 60.4258C101.069 62.9493 99.7589 65.9066 99.3082 69.0262L101.288 69.3121C101.685 66.561 102.842 63.9363 104.662 61.6822L103.106 60.4258ZM99.3802 69.5662C99.5901 70.0514 99.7677 70.4924 99.915 70.8815L101.785 70.1731C101.627 69.7546 101.438 69.2851 101.216 68.7721L99.3802 69.5662ZM101.411 71.355C104.632 69.1717 108.681 68.2061 112.693 68.6811L112.929 66.695C108.456 66.1654 103.922 67.2371 100.289 69.6995L101.411 71.355ZM112.693 68.6811C116.705 69.1562 120.332 71.0299 122.813 73.8743L124.32 72.5597C121.493 69.3183 117.402 67.2247 112.929 66.695L112.693 68.6811ZM124.034 74.1008C124.083 74.0748 124.133 74.0491 124.183 74.0237L123.273 72.2425C123.215 72.2723 123.156 72.3025 123.099 72.3332L124.034 74.1008ZM124.504 73.7633C126.831 70.8972 129.45 69.6502 132.224 69.2983C135.046 68.9404 138.087 69.5017 141.234 70.3841L141.774 68.4583C138.557 67.5565 135.201 66.9047 131.972 67.3142C128.695 67.7298 125.608 69.2308 122.951 72.5028L124.504 73.7633ZM142.311 68.8313C141.107 67.1835 139.241 65.2303 136.555 63.9324C133.852 62.626 130.379 62.0143 126.037 62.9684L126.467 64.9218C130.383 64.0611 133.397 64.6277 135.685 65.7332C137.991 66.8472 139.621 68.5394 140.696 70.0111L142.311 68.8313ZM127.252 63.9451V63.9416H125.252V63.9451H127.252ZM126.028 62.967C125.986 62.9768 125.941 62.9821 125.896 62.9826L125.918 64.9825C126.106 64.9804 126.293 64.9583 126.476 64.9162L126.028 62.967ZM125.908 62.9825C125.798 62.9825 125.697 62.9534 125.618 62.9068L124.605 64.6313C125 64.8632 125.452 64.9823 125.907 64.9825L125.908 62.9825ZM125.618 62.9068C125.539 62.8606 125.492 62.8037 125.468 62.7545L123.675 63.6409C123.882 64.059 124.209 64.399 124.605 64.6313L125.618 62.9068ZM125.468 62.7545C125.444 62.7068 125.439 62.6614 125.446 62.6197L123.474 62.2843C123.395 62.7487 123.467 63.2213 123.675 63.6409L125.468 62.7545ZM125.446 62.6197C125.453 62.5771 125.476 62.5243 125.527 62.4719L124.1 61.0705C123.776 61.4006 123.553 61.8206 123.474 62.2842L125.446 62.6197ZM125.527 62.4718C125.704 62.2918 125.941 62.0496 126.411 61.7562C126.893 61.4555 127.646 61.0856 128.849 60.7105C131.265 59.9571 135.431 59.2022 142.704 58.9157L142.625 56.9172C135.267 57.2071 130.906 57.9741 128.253 58.8012C126.922 59.2165 126.006 59.6514 125.352 60.0595C124.687 60.4749 124.322 60.8451 124.1 61.0706L125.527 62.4718ZM142.704 58.9157C148.897 58.672 155.225 58.8422 158.858 58.9895L158.939 56.9911C155.284 56.843 148.895 56.6705 142.625 56.9172L142.704 58.9157ZM159.639 57.318C154.859 52.0554 148.213 49.1415 142.818 47.5387C137.41 45.9318 133.144 45.6091 133.005 45.6004L132.88 47.5965C132.877 47.5963 132.941 47.6008 133.07 47.6126C133.197 47.6242 133.382 47.6424 133.618 47.669C134.092 47.7223 134.774 47.8094 135.618 47.9449C137.308 48.2162 139.64 48.6809 142.249 49.4559C147.487 51.0121 153.732 53.7886 158.158 58.6626L159.639 57.318ZM143.005 53.2334C142.99 53.2926 142.941 53.3735 142.832 53.4359L143.823 55.1728C144.365 54.8635 144.78 54.3555 144.941 53.7356L143.005 53.2334ZM142.832 53.4359C142.72 53.4994 142.573 53.5258 142.428 53.4969L142.038 55.4584C142.644 55.5791 143.283 55.481 143.823 55.1728L142.832 53.4359ZM142.431 53.4975C139.467 52.8986 136.472 52.4381 133.456 52.118L133.245 54.1068C136.199 54.4204 139.132 54.8714 142.035 55.4579L142.431 53.4975ZM133.464 52.1188C133.315 52.1018 133.202 52.0341 133.138 51.9605L131.627 53.271C132.039 53.7464 132.622 54.0355 133.237 54.1059L133.464 52.1188ZM133.138 51.9605C133.077 51.8907 133.064 51.8225 133.07 51.7692L131.086 51.5221C131.006 52.1628 131.211 52.7917 131.627 53.271L133.138 51.9605ZM133.07 51.7692C133.077 51.7139 133.111 51.6363 133.204 51.5683L132.022 49.9548C131.516 50.3256 131.165 50.8833 131.086 51.5221L133.07 51.7692ZM133.204 51.5683C133.3 51.4983 133.439 51.4554 133.589 51.4691L133.769 49.4772C133.153 49.4215 132.526 49.5859 132.022 49.9548L133.204 51.5683ZM133.574 51.4675C136.627 51.7912 139.66 52.257 142.66 52.863L143.056 50.9026C139.995 50.2842 136.9 49.809 133.785 49.4787L133.574 51.4675ZM142.663 52.8635C142.735 52.8778 142.798 52.904 142.85 52.937L143.924 51.2497C143.658 51.0803 143.362 50.9633 143.054 50.902L142.663 52.8635ZM142.85 52.937C142.902 52.9699 142.939 53.0075 142.964 53.0436L144.606 51.9013C144.423 51.6394 144.19 51.4193 143.924 51.2497L142.85 52.937ZM142.964 53.0436C142.989 53.0793 143.002 53.1137 143.008 53.144L144.974 52.7788C144.915 52.4616 144.788 52.1636 144.606 51.9013L142.964 53.0436ZM143.008 53.144C143.013 53.1741 143.012 53.2046 143.004 53.2354L144.941 53.7336C145.022 53.4213 145.033 53.0961 144.974 52.7787L143.008 53.144Z" fill="black" mask="url(#path-3-inside-1)"/>
<defs>
<filter id="filter0_i" x="41.1025" y="37.8425" width="117.796" height="62.3203" filterUnits="userSpaceOnUse" color-interpolation-filters="sRGB">
<feFlood flood-opacity="0" result="BackgroundImageFix"/>
<feBlend mode="normal" in="SourceGraphic" in2="BackgroundImageFix" result="shape"/>
<feColorMatrix in="SourceAlpha" type="matrix" values="0 0 0 0 0 0 0 0 0 0 0 0 0 0 0 0 0 0 127 0" result="hardAlpha"/>
<feOffset dy="4"/>
<feGaussianBlur stdDeviation="2"/>
<feComposite in2="hardAlpha" operator="arithmetic" k2="-1" k3="1"/>
<feColorMatrix type="matrix" values="0 0 0 0 0 0 0 0 0 0 0 0 0 0 0 0 0 0 0.25 0"/>
<feBlend mode="normal" in2="shape" result="effect1_innerShadow"/>
</filter>
<linearGradient id="paint0_linear" x1="190.666" y1="499.999" x2="190.666" y2="-299.999" gradientUnits="userSpaceOnUse">
<stop stop-color="#0B225B"/>
<stop offset="0.0001" stop-color="#4D0EB5"/>
<stop offset="0.9999" stop-color="#1728C4"/>
<stop offset="1" stop-color="#66039B" stop-opacity="0.937861"/>
</linearGradient>
<linearGradient id="paint1_linear" x1="127.381" y1="126.01" x2="127.381" y2="144.188" gradientUnits="userSpaceOnUse">
<stop stop-color="#F603CC"/>
<stop offset="1" stop-color="#FF00C7"/>
</linearGradient>
</defs>
</svg>
