<svg width="200" height="200" viewBox="0 0 200 200" fill="none" xmlns="http://www.w3.org/2000/svg">
<path d="M1.5 198.5H198.5V1.5H1.5V198.5Z" fill="#E1E1E1" stroke="black" stroke-width="3"/>
<path d="M97.7413 79.948C98.7046 74.3638 104.175 70.22 110.723 70.22C117.962 70.22 123.853 75.362 123.853 81.6823C123.853 88.0025 117.963 93.1448 110.723 93.1448C107.157 93.1591 103.729 91.894 101.188 89.6255M97.7413 79.948C99.9899 82.4145 101.222 85.5136 101.226 88.7136C101.226 89.0201 101.21 89.3245 101.188 89.6255M97.7413 79.948L98.234 80.033C98.2476 79.9541 98.2621 79.8756 98.2776 79.7973M97.7413 79.948L98.1108 79.6111C98.167 79.6728 98.2226 79.7349 98.2776 79.7973M101.188 89.6255L101.687 89.6619C101.693 89.5792 101.699 89.4959 101.704 89.412M101.188 89.6255L101.521 89.2525C101.582 89.3063 101.642 89.3594 101.704 89.412M101.704 89.412C101.717 89.1831 101.726 88.9498 101.726 88.7136V88.713C101.722 85.4632 100.5 82.3207 98.2776 79.7973M101.704 89.412C104.128 91.4942 107.357 92.6583 110.721 92.6448L110.723 92.6448C117.753 92.6448 123.353 87.6648 123.353 81.6823C123.353 75.6998 117.752 70.72 110.723 70.72C104.463 70.72 99.3036 74.6159 98.2776 79.7973M124.987 143.688L124.987 144.188C132.227 144.188 138.117 139.046 138.117 132.726C138.118 131.896 138.02 131.07 137.826 130.26C137.673 130.332 137.518 130.403 137.362 130.47M124.987 143.688C132.017 143.688 137.617 138.708 137.617 132.726V132.725C137.618 131.968 137.532 131.212 137.362 130.47M124.987 143.688C122.244 143.686 119.578 142.91 117.356 141.48M124.987 143.688L117.356 141.48M137.362 130.47C137.324 130.306 137.282 130.142 137.236 129.98C134.997 130.97 132.535 131.483 130.039 131.479M137.362 130.47C135.078 131.467 132.575 131.983 130.038 131.979M130.038 131.979C130.038 131.979 130.039 131.979 130.039 131.979L130.039 131.479M130.038 131.979C127.541 131.98 125.073 131.477 122.814 130.503C121.177 129.798 119.679 128.858 118.376 127.723C119.385 129.684 119.894 131.839 119.85 134.026C119.796 136.68 118.929 139.26 117.356 141.48M130.038 131.979C130.038 131.979 130.038 131.979 130.038 131.979L130.039 131.479M130.039 131.479L117.356 141.48M125.595 88.0932C130.505 89.6935 133.754 93.7553 133.754 98.3497C133.754 104.332 128.154 109.312 121.124 109.312C114.094 109.312 108.493 104.332 108.493 98.3497L125.595 88.0932ZM125.595 88.0932C124.225 90.522 122.157 92.5655 119.615 94.009C116.947 95.524 113.862 96.3177 110.721 96.301C110.721 96.301 110.72 96.301 110.72 96.301L110.723 95.801L125.595 88.0932ZM77.9006 101.848C78.1697 104.625 79.3742 106.995 81.6285 109.269C79.5027 112.898 75.1187 115.302 70.3059 115.303L77.9006 101.848ZM77.9006 101.848C75.9516 101.015 74.2005 99.8365 72.7508 98.3795C71.3237 96.9453 70.2181 95.27 69.4973 93.4476C62.8831 94.0671 57.675 98.8749 57.675 104.341C57.675 110.323 63.2756 115.303 70.3058 115.303L77.9006 101.848ZM105.967 127.021L105.965 127.021C103.972 127.027 102.006 126.614 100.222 125.816C98.4387 125.019 96.888 123.859 95.6893 122.432C94.7026 121.25 94.004 119.896 93.636 118.46C93.3037 117.162 93.247 115.821 93.4674 114.507C93.768 114.523 94.0712 114.532 94.3772 114.532C100.023 114.532 105.508 111.95 108.672 107.974C111.126 110.438 114.402 112.098 117.993 112.702C118.395 113.784 118.599 114.917 118.598 116.058V116.059C118.598 122.041 112.997 127.021 105.967 127.021ZM119.098 116.059C119.098 122.379 113.207 127.521 105.967 127.521L119.098 116.059ZM82.1305 103.084C83.1311 103.249 84.1464 103.332 85.1642 103.333H85.1644C92.3895 103.333 98.5891 99.2188 100.831 93.4448C102.086 94.2575 103.458 94.909 104.907 95.3814C104.162 98.5524 104.633 101.86 106.241 104.753C104.063 108.315 99.2427 110.875 94.3768 110.875L94.3743 110.875C91.023 110.892 87.8048 109.722 85.4037 107.625C83.6583 106.096 82.6252 104.657 82.1305 103.084ZM115.923 133.767V133.767C115.923 139.75 110.322 144.73 103.292 144.73C96.2618 144.73 90.6611 139.75 90.6607 133.768C90.6625 132.306 90.9965 130.859 91.6438 129.516C92.2301 128.299 93.0627 127.191 94.0998 126.248C96.7386 128.615 100.16 130.128 103.836 130.553C107.511 130.979 111.236 130.295 114.439 128.61C115.415 130.186 115.926 131.962 115.923 133.767ZM131.82 74.3659H131.822C138.852 74.3659 144.453 79.3457 144.453 85.3282C144.453 89.5501 141.629 93.3953 137.298 95.2079C136.695 92.8156 135.441 90.5998 133.652 88.7631C131.83 86.8914 129.516 85.479 126.935 84.6522C127.648 81.6297 127.255 78.4795 125.821 75.6822C127.67 74.8132 129.728 74.3597 131.82 74.3659ZM130.039 128.323H130.038C128.02 128.327 126.03 127.902 124.229 127.083C122.553 126.322 121.086 125.24 119.926 123.918C121.112 122.287 121.919 120.449 122.291 118.516C122.648 116.664 122.598 114.768 122.147 112.938C124.491 112.817 126.785 112.247 128.876 111.261C131.053 110.236 132.956 108.786 134.449 107.014C136.804 107.728 138.854 109.081 140.323 110.884C141.855 112.764 142.675 115.035 142.67 117.359V117.36C142.67 123.343 137.069 128.323 130.039 128.323ZM124.986 147.344H124.986C125.051 147.344 125.116 147.343 125.18 147.342C125.551 148.427 125.736 149.556 125.73 150.691V150.694C125.73 156.676 120.129 161.656 113.099 161.656C106.069 161.656 100.468 156.677 100.47 150.695V150.695C100.469 149.86 100.578 149.028 100.795 148.216C101.622 148.328 102.456 148.385 103.292 148.386C107.563 148.398 111.679 146.926 114.797 144.271C117.743 146.262 121.315 147.339 124.986 147.344ZM108.493 98.3497C108.493 97.6253 108.576 96.903 108.739 96.1942L108.493 98.3497ZM85.1644 77.7513C92.1947 77.7513 97.795 82.7311 97.795 88.7139C97.795 94.6964 92.1947 99.6761 85.1644 99.6761C78.1341 99.6761 72.5333 94.6966 72.5333 88.7139C72.5333 82.7311 78.1341 77.7513 85.1644 77.7513ZM143.105 96.0219C144.126 97.7779 144.583 99.7582 144.421 101.738C144.257 103.736 143.469 105.653 142.148 107.265C140.552 105.755 138.618 104.577 136.482 103.809C137.179 102.286 137.579 100.661 137.662 99.0094C139.67 98.3429 141.519 97.3287 143.105 96.0219ZM70.6166 118.955C76.393 118.859 81.7246 116.069 84.6309 111.73C86.1384 112.703 87.8131 113.439 89.5855 113.909C89.0356 117.192 89.7627 120.544 91.6345 123.387C90.229 124.61 89.0781 126.057 88.2408 127.66C86.5952 128.242 84.8471 128.555 83.078 128.584C79.9464 128.6 76.9273 127.557 74.6101 125.668C72.4489 123.906 71.0457 121.53 70.6166 118.955Z" fill="url(#paint0_linear)" stroke="black"/>
<g filter="url(#filter0_i)">
<path d="M66.1361 82.1258C66.4407 82.179 66.7188 82.3188 66.9301 82.5248C67.1413 82.7309 67.2748 82.9925 67.3112 83.2719C67.3476 83.5513 67.285 83.8339 67.1324 84.0789C66.9799 84.3239 66.7453 84.5185 66.4627 84.6346L66.4645 84.6378C60.5201 87.0988 59.7288 90.4816 60.3089 93.549C62.8774 91.7253 65.9633 90.5988 69.209 90.3001C69.1405 89.7736 69.1057 89.244 69.1047 88.7138C69.1047 80.9289 76.3097 74.5951 85.1655 74.5951C87.0807 74.5936 88.9814 74.8957 90.7818 75.4878C90.7103 75.2852 90.6337 75.0735 90.5521 74.8527C87.5545 73.0783 84.2231 71.8179 80.7236 71.134C72.7281 69.592 65.2372 71.4161 58.4579 76.5546C58.1598 76.7805 57.775 76.8898 57.388 76.8585C57.001 76.8271 56.6436 76.6576 56.3944 76.3874C56.1452 76.1171 56.0247 75.7681 56.0593 75.4173C56.0938 75.0664 56.2807 74.7424 56.5788 74.5164C65.9746 67.3961 75.2931 67.3472 81.456 68.5595C84.0296 69.0714 86.5248 69.866 88.8862 70.9257C88.1054 69.2935 87.2251 67.7019 86.2495 66.1583C85.4058 64.8228 84.4866 63.5278 83.4956 62.2783C82.438 61.5943 76.0721 57.6277 69.7944 57.0062C70.7046 57.9505 71.1127 58.9011 71.0084 59.847C70.9862 60.0507 70.9123 60.2469 70.7926 60.4204C70.6729 60.5939 70.5106 60.74 70.3184 60.8472C70.1262 60.9545 69.9092 61.02 69.6845 61.0387C69.4597 61.0574 69.2332 61.0287 69.0227 60.955C68.9471 60.9284 61.133 58.2891 53.9823 61.5967C49.344 63.7422 45.9347 67.9085 43.8321 73.9953C45.4098 73.4785 47.0594 73.1642 48.7331 73.0616C49.0291 73.0486 49.3224 73.1173 49.5744 73.2586C49.8264 73.3999 50.0253 73.6072 50.1447 73.853C50.264 74.0989 50.2984 74.3718 50.2432 74.6358C50.1879 74.8997 50.0457 75.1422 49.8353 75.3314C49.7333 75.4233 39.9573 84.4067 41.2141 96.1628C43.5036 94.2415 47.4511 91.0431 51.6086 88.194C61.6296 81.3287 65.0213 81.9287 66.1361 82.1258Z" fill="#479968"/>
<path d="M88.8379 64.9122C91.2699 68.7482 93.1247 72.8621 94.3528 77.1443C94.6724 77.3411 94.985 77.5467 95.2873 77.7629C95.9173 75.8274 97.0048 74.0395 98.4742 72.5237C97.9777 70.9855 96.4595 66.962 92.9518 62.3051C88.8939 56.9177 81.267 49.5618 67.9044 44.9136L66.3704 47.2511C75.6221 50.1613 83.3764 56.2515 88.8379 64.9122Z" fill="#479968"/>
<path d="M132.943 46.5984C132.639 46.5781 132.351 46.4726 132.116 46.2968C131.882 46.1209 131.714 45.8833 131.636 45.617C131.557 45.3506 131.572 45.0687 131.678 44.8104C131.784 44.552 131.976 44.33 132.228 44.1751C133.8 43.2516 135.501 42.521 137.285 42.0026C129.629 38.189 122.552 36.9892 116.23 38.4368C107.577 40.4179 103.349 46.7321 103.307 46.7953C103.199 46.9602 103.053 47.1021 102.879 47.2109C102.705 47.3198 102.506 47.3932 102.298 47.426C102.089 47.4588 101.876 47.4503 101.671 47.401C101.467 47.3518 101.276 47.2629 101.113 47.1406C100.375 46.586 99.6423 45.5596 99.7568 43.6875C94.8022 47.5977 92.374 54.4585 91.7266 56.5482C93.0661 57.9355 94.3111 59.3954 95.4549 60.9199C96.4879 62.2982 97.4344 63.7282 98.2899 65.2031C99.0114 63.203 100.068 61.3155 101.423 59.6069C107.678 51.7378 118.449 50.0826 126.384 50.0795C126.772 50.0795 127.145 50.2194 127.42 50.4685C127.694 50.7175 127.849 51.0553 127.849 51.4076C127.849 51.7598 127.694 52.0976 127.42 52.3467C127.145 52.5958 126.772 52.7357 126.384 52.7357C115.908 52.7397 108.337 55.5383 103.884 61.054C101.955 63.4428 100.722 66.2338 100.298 69.1691C100.514 69.6682 100.697 70.1235 100.85 70.5273C104.277 68.2044 108.568 67.1857 112.811 67.6881C117.054 68.1904 120.912 70.1741 123.566 73.217C123.62 73.1887 123.674 73.1607 123.728 73.1331C128.711 66.995 135.14 67.637 141.504 69.4212C139.225 66.3017 134.51 62.1303 126.252 63.9451V63.9416C126.139 63.9675 126.024 63.9813 125.907 63.9825C125.625 63.9824 125.348 63.9083 125.111 63.769C124.874 63.6298 124.687 63.4314 124.571 63.1977C124.456 62.964 124.417 62.705 124.46 62.452C124.503 62.1989 124.626 61.9625 124.814 61.7712C125.61 60.9603 128.033 58.4929 142.665 57.9165C148.896 57.6713 155.254 57.8426 158.898 57.9903C149.693 47.8538 133.116 46.6093 132.943 46.5984ZM143.973 53.4845C143.885 53.824 143.653 54.1185 143.327 54.3044C143.002 54.4902 142.609 54.5524 142.233 54.4777C139.3 53.885 136.335 53.4293 133.35 53.1124C132.968 53.0687 132.62 52.8902 132.382 52.6157C132.144 52.3412 132.035 51.9927 132.078 51.6457C132.121 51.2986 132.314 50.981 132.613 50.7615C132.913 50.5421 133.296 50.4385 133.679 50.4731C136.763 50.8001 139.827 51.2706 142.858 51.8828C143.048 51.9206 143.228 51.9921 143.387 52.0934C143.546 52.1946 143.681 52.3234 143.785 52.4725C143.889 52.6215 143.959 52.7877 143.991 52.9614C144.023 53.1351 144.017 53.3129 143.973 53.4845Z" fill="#479968"/>
</g>
<path d="M85.1652 74.0951C86.3856 74.0941 87.6006 74.2132 88.7892 74.449C86.2473 73.1387 83.4955 72.1851 80.6277 71.6247C72.779 70.1114 65.4316 71.8962 58.76 76.9531L58.4579 76.5546L58.7599 76.9531C58.3599 77.2563 57.852 77.3977 57.3476 77.3568C56.8431 77.3159 56.3663 77.0945 56.0268 76.7263C55.6856 76.3562 55.5124 75.8678 55.5617 75.3682C55.6108 74.8695 55.8753 74.4223 56.2768 74.118L56.5788 74.5164L56.2768 74.1179C65.8154 66.8894 75.2901 66.8371 81.5525 68.0689L81.5535 68.0691C83.7124 68.4985 85.8172 69.1242 87.8364 69.9361C87.2208 68.7414 86.5504 67.5702 85.8269 66.4254L85.8268 66.4253C85.0073 65.1282 84.1156 63.8694 83.1551 62.6538C82.0011 61.9142 76.5648 58.5868 70.9456 57.6627C71.3869 58.3783 71.5907 59.1275 71.5055 59.9013C71.4739 60.1899 71.3696 60.4646 71.2042 60.7043C71.039 60.9438 70.8182 61.141 70.562 61.2839C70.306 61.4267 70.0199 61.5125 69.7259 61.537C69.4319 61.5614 69.1349 61.5241 68.8573 61.4268L68.8569 61.4267C68.8584 61.4272 68.7371 61.3858 68.5085 61.3194C68.2814 61.2534 67.9507 61.1634 67.5327 61.0658C66.6962 60.8706 65.5126 60.646 64.1121 60.5236C61.3057 60.2784 57.6607 60.4462 54.1922 62.0505C49.9431 64.016 46.7281 67.7461 44.641 73.2311C45.9624 72.8714 47.3247 72.647 48.7025 72.5626L48.7112 72.562L48.7112 72.5621C49.0977 72.5451 49.4836 72.6345 49.819 72.8225L49.5744 73.2586L49.819 72.8225C50.1546 73.0107 50.4278 73.2915 50.5944 73.6346C50.7615 73.9786 50.8108 74.3643 50.7326 74.7382C50.6545 75.1113 50.455 75.4465 50.1699 75.7029C50.1688 75.7039 50.1587 75.7132 50.1395 75.7311C50.1195 75.7497 50.0908 75.7768 50.0539 75.8123C49.98 75.8831 49.8735 75.987 49.7393 76.1225C49.4711 76.3934 49.0927 76.7905 48.6444 77.3016C47.7472 78.3243 46.5728 79.8009 45.4407 81.6356C43.2987 85.1069 41.33 89.8243 41.6337 95.1618C43.9862 93.2121 47.569 90.3562 51.326 87.7816L51.326 87.7815C56.3597 84.3329 59.7599 82.737 62.0662 82.0333C64.3964 81.3222 65.6048 81.5241 66.2231 81.6334C66.6216 81.7033 66.9925 81.8873 67.2792 82.1669L66.9301 82.5248M85.1652 74.0951C85.1653 74.0951 85.1654 74.0951 85.1655 74.0951V74.5951L85.1652 74.0951ZM85.1652 74.0951C76.0958 74.0953 68.6047 80.5943 68.6047 88.7138V88.7147C68.6054 89.0956 68.6229 89.4761 68.6571 89.8555M68.6571 89.8555C65.7873 90.1954 63.0513 91.1679 60.6883 92.689M68.6571 89.8555C68.6721 90.0214 68.6902 90.1871 68.7116 90.3525C65.8361 90.6938 63.1018 91.6865 60.7616 93.2383C60.7313 93.0554 60.7066 92.8722 60.6883 92.689M68.6571 89.8555C68.8225 89.8359 68.9882 89.8184 69.1544 89.8031C69.122 89.4408 69.1054 89.0774 69.1047 88.7138L66.1361 82.1258C66.4407 82.179 66.7188 82.3188 66.9301 82.5248M60.6883 92.689C60.5672 91.4808 60.7215 90.269 61.3753 89.112C62.1708 87.7042 63.7471 86.304 66.6557 85.0998L67.1723 84.8859L67.1337 84.8158M60.6883 92.689C60.5308 92.7903 60.375 92.8941 60.221 93.0003C59.8515 90.1659 60.8156 87.1292 66.0025 84.8355L66.0249 84.8761L66.0266 84.8793L66.4641 84.638L66.6527 85.0971C66.6533 85.0969 66.6538 85.0967 66.6544 85.0965C66.8276 85.0251 66.9892 84.9306 67.1337 84.8158M67.1337 84.8158C67.3001 84.6837 67.4439 84.5246 67.5569 84.3432C67.7689 84.0027 67.8587 83.6043 67.807 83.2074C67.7554 82.8109 67.5668 82.4475 67.2792 82.1669L66.9301 82.5248M67.1337 84.8158L66.9023 84.3964L66.9005 84.3932L66.7644 84.4683C66.913 84.3621 67.0383 84.2301 67.1324 84.0789C67.285 83.8339 67.3476 83.5513 67.3112 83.2719C67.2748 82.9925 67.1413 82.7309 66.9301 82.5248M90.5521 74.8527C90.5574 74.867 90.5626 74.8813 90.5679 74.8955M90.5521 74.8527C87.5545 73.0783 84.2231 71.8179 80.7236 71.134L90.5679 74.8955M90.5521 74.8527L90.533 74.8849M90.5521 74.8527L90.4956 74.8736L90.533 74.8849M90.5679 74.8955C90.5563 74.892 90.5446 74.8884 90.533 74.8849M90.5679 74.8955L90.533 74.8849M126.384 53.2357C126.89 53.2357 127.384 53.0539 127.756 52.7171C128.129 52.3789 128.349 51.9091 128.349 51.4076C128.349 50.906 128.129 50.4362 127.756 50.098C127.384 49.7613 126.89 49.5795 126.384 49.5795H126.384C118.421 49.5827 107.438 51.2356 101.032 59.2958L101.031 59.2962C99.8629 60.7695 98.9101 62.374 98.1962 64.0692C97.4735 62.8881 96.6923 61.7372 95.855 60.62L95.8548 60.6198C94.7575 59.1572 93.5681 57.7536 92.2927 56.4161C93.0065 54.2015 95.1685 48.4531 99.283 44.7419C99.4462 46.136 100.11 47.0121 100.813 47.5404L100.813 47.5405C101.032 47.705 101.285 47.8224 101.554 47.8871C101.822 47.9518 102.103 47.9629 102.376 47.9199C102.649 47.877 102.911 47.7805 103.144 47.6349C103.377 47.4893 103.576 47.2972 103.725 47.0691L103.307 46.7953L103.725 47.0701C103.724 47.0706 103.984 46.6806 104.508 46.0652C105.031 45.4503 105.815 44.6126 106.864 43.7152C108.963 41.9201 112.112 39.8926 116.342 38.9242L116.23 38.4368L116.342 38.9242C122.214 37.5796 128.789 38.5628 135.94 41.9085C134.554 42.3947 133.225 43.0095 131.975 43.744L131.975 43.7439L131.966 43.7494C131.63 43.9562 131.364 44.2584 131.216 44.6204C131.067 44.9834 131.045 45.3822 131.156 45.7584C131.267 46.1338 131.501 46.4599 131.816 46.6966C132.131 46.9329 132.513 47.0707 132.909 47.0973L132.911 47.0975C132.911 47.0974 132.915 47.0977 132.925 47.0985L132.966 47.1017C133.001 47.1045 133.051 47.1088 133.116 47.1147C133.246 47.1266 133.434 47.1451 133.674 47.1722C134.155 47.2262 134.845 47.3143 135.698 47.4512C137.403 47.7252 139.758 48.1942 142.391 48.9766C147.348 50.4492 153.246 53.0183 157.686 57.444C153.936 57.3114 148.241 57.1967 142.645 57.4168C135.308 57.7059 130.995 58.4699 128.402 59.2785C127.103 59.6837 126.227 60.1024 125.617 60.4837C125 60.8685 124.667 61.2068 124.457 61.4209C124.201 61.6816 124.028 62.0098 123.967 62.3681C123.906 62.7269 123.961 63.0926 124.123 63.4193C124.284 63.7452 124.542 64.0144 124.858 64.2001C125.13 64.3597 125.437 64.4535 125.752 64.4768V64.5669L126.359 64.4334C130.382 63.5494 133.511 64.1273 135.903 65.283C137.704 66.1532 139.104 67.3596 140.159 68.548C137.436 67.8736 134.682 67.4746 132.035 67.8103C128.989 68.1966 126.112 69.5526 123.599 72.5061C120.875 69.581 117.048 67.6863 112.87 67.1915C108.724 66.7007 104.53 67.6225 101.092 69.773C101.006 69.5597 100.913 69.3358 100.813 69.1022C101.243 66.3096 102.429 63.6519 104.273 61.3681C108.593 56.0176 115.985 53.2397 126.384 53.2357ZM126.384 53.2357V52.7357M126.384 53.2357V52.7357M126.384 52.7357C126.772 52.7357 127.145 52.5958 127.42 52.3467C127.694 52.0976 127.849 51.7598 127.849 51.4076C127.849 51.0553 127.694 50.7175 127.42 50.4685C127.145 50.2194 126.772 50.0795 126.384 50.0795L100.298 69.1691C100.722 66.2338 101.955 63.4428 103.884 61.054C108.337 55.5383 115.908 52.7397 126.384 52.7357ZM90.1445 75.1931C90.158 75.2301 90.1714 75.2667 90.1846 75.3031L90.1445 75.1931ZM144.457 53.6101L144.457 53.609C144.519 53.3671 144.528 53.1156 144.482 52.8701C144.437 52.6246 144.338 52.3925 144.195 52.1869C144.052 51.9814 143.868 51.8069 143.655 51.6716C143.443 51.5365 143.206 51.4423 142.957 51.3927C139.911 50.7774 136.832 50.3045 133.732 49.9759L133.732 49.9758L133.724 49.9751C133.224 49.93 132.719 50.064 132.318 50.3581C131.915 50.6533 131.643 51.091 131.582 51.5839C131.52 52.0778 131.678 52.5664 132.005 52.9433C132.33 53.3183 132.795 53.5521 133.294 53.6091L133.298 53.6096C136.267 53.9248 139.216 54.3782 142.134 54.9678L142.135 54.9681C142.626 55.0658 143.143 54.9856 143.575 54.7386C144.009 54.491 144.332 54.0898 144.457 53.6101ZM94.7799 76.8212C93.5383 72.5589 91.6822 68.4647 89.2602 64.6445C83.863 56.0862 76.2418 49.9996 67.1482 46.9772L68.1078 45.5149C81.1373 50.1325 88.5835 57.3366 92.5524 62.6059C95.821 66.9454 97.3373 70.7229 97.9054 72.3966C96.6458 73.7504 95.6713 75.3053 95.0324 76.9833C94.9487 76.9286 94.8645 76.8745 94.7799 76.8212Z" stroke="black"/>
<defs>
<filter id="filter0_i" x="41.1025" y="37.8425" width="117.796" height="62.3203" filterUnits="userSpaceOnUse" color-interpolation-filters="sRGB">
<feFlood flood-opacity="0" result="BackgroundImageFix"/>
<feBlend mode="normal" in="SourceGraphic" in2="BackgroundImageFix" result="shape"/>
<feColorMatrix in="SourceAlpha" type="matrix" values="0 0 0 0 0 0 0 0 0 0 0 0 0 0 0 0 0 0 127 0" result="hardAlpha"/>
<feOffset dy="4"/>
<feGaussianBlur stdDeviation="2"/>
<feComposite in2="hardAlpha" operator="arithmetic" k2="-1" k3="1"/>
<feColorMatrix type="matrix" values="0 0 0 0 0 0 0 0 0 0 0 0 0 0 0 0 0 0 0.25 0"/>
<feBlend mode="normal" in2="shape" result="effect1_innerShadow"/>
</filter>
<linearGradient id="paint0_linear" x1="127.381" y1="126.01" x2="127.381" y2="144.188" gradientUnits="userSpaceOnUse">
<stop stop-color="#F603CC"/>
<stop offset="1" stop-color="#FF00C7"/>
</linearGradient>
</defs>
</svg>
