<svg width="200" height="200" viewBox="0 0 200 200" fill="none" xmlns="http://www.w3.org/2000/svg">
<path d="M1.5 198.5H198.5V1.5H1.5V198.5Z" fill="#E1E1E1" stroke="black" stroke-width="3"/>
<path d="M67.5413 60.4915V61.478L68.3369 60.8947C73.134 57.3778 81.393 52.5 90.1663 52.5C97.1127 52.5 101.941 55.0368 106.288 57.3206L106.296 57.3249C106.296 57.325 106.296 57.3251 106.297 57.3252C110.314 59.4423 114.219 61.5001 119.666 61.5001C125.133 61.5001 129.642 59.4408 132.781 57.3853C135.894 55.3472 137.687 53.2966 137.77 53.1991C138.114 52.7998 138.626 52.5441 139.2 52.5088C139.814 52.4992 140.35 52.6773 140.736 53.0303L145.653 57.5302C146.376 58.1925 146.394 59.2349 145.703 59.9201C144.772 60.8401 143.636 62.5395 142.367 64.7784C141.09 67.0313 139.656 69.8738 138.137 73.1163C135.097 79.6022 131.706 87.7107 128.535 95.9512C125.365 104.192 122.412 112.572 120.252 119.602C119.171 123.117 118.287 126.299 117.673 128.96C117.061 131.611 116.708 133.779 116.708 135.25C116.708 144.878 120.34 154.336 121.27 156.591L121.298 156.659L121.345 156.717C121.587 157.012 121.723 157.37 121.723 157.75C121.723 158.675 120.888 159.5 119.765 159.5H119.765H119.765H119.765H119.764H119.764H119.764H119.764H119.764H119.764H119.764H119.764H119.763H119.763H119.763H119.763H119.763H119.763H119.763H119.763H119.762H119.762H119.762H119.762H119.762H119.762H119.762H119.762H119.761H119.761H119.761H119.761H119.761H119.761H119.761H119.761H119.76H119.76H119.76H119.76H119.76H119.76H119.76H119.76H119.759H119.759H119.759H119.759H119.759H119.759H119.759H119.758H119.758H119.758H119.758H119.758H119.758H119.758H119.757H119.757H119.757H119.757H119.757H119.757H119.757H119.756H119.756H119.756H119.756H119.756H119.756H119.756H119.755H119.755H119.755H119.755H119.755H119.755H119.755H119.754H119.754H119.754H119.754H119.754H119.754H119.754H119.753H119.753H119.753H119.753H119.753H119.753H119.752H119.752H119.752H119.752H119.752H119.752H119.752H119.751H119.751H119.751H119.751H119.751H119.751H119.75H119.75H119.75H119.75H119.75H119.75H119.749H119.749H119.749H119.749H119.749H119.749H119.749H119.748H119.748H119.748H119.748H119.748H119.748H119.747H119.747H119.747H119.747H119.747H119.747H119.746H119.746H119.746H119.746H119.746H119.746H119.745H119.745H119.745H119.745H119.745H119.745H119.744H119.744H119.744H119.744H119.744H119.743H119.743H119.743H119.743H119.743H119.743H119.742H119.742H119.742H119.742H119.742H119.742H119.741H119.741H119.741H119.741H119.741H119.741H119.74H119.74H119.74H119.74H119.74H119.739H119.739H119.739H119.739H119.739H119.739H119.738H119.738H119.738H119.738H119.738H119.737H119.737H119.737H119.737H119.737H119.737H119.736H119.736H119.736H119.736H119.736H119.735H119.735H119.735H119.735H119.735H119.735H119.734H119.734H119.734H119.734H119.734H119.733H119.733H119.733H119.733H119.733H119.732H119.732H119.732H119.732H119.732H119.731H119.731H119.731H119.731H119.731H119.731H119.73H119.73H119.73H119.73H119.73H119.729H119.729H119.729H119.729H119.729H119.728H119.728H119.728H119.728H119.728H119.727H119.727H119.727H119.727H119.727H119.726H119.726H119.726H119.726H119.726H119.725H119.725H119.725H119.725H119.725H119.724H119.724H119.724H119.724H119.724H119.723H119.723H119.723H119.723H119.723H119.722H119.722H119.722H119.722H119.722H119.721H119.721H119.721H119.721H119.721H119.72H119.72H119.72H119.72H119.72H119.719H119.719H119.719H119.719H119.719H119.718H119.718H119.718H119.718H119.718H119.717H119.717H119.717H119.717H119.716H119.716H119.716H119.716H119.716H119.715H119.715H119.715H119.715H119.715H119.714H119.714H119.714H119.714H119.714H119.713H119.713H119.713H119.713H119.712H119.712H119.712H119.712H119.712H119.711H119.711H119.711H119.711H119.711H119.71H119.71H119.71H119.71H119.71H119.709H119.709H119.709H119.709H119.708H119.708H119.708H119.708H119.708H119.707H119.707H119.707H119.707H119.706H119.706H119.706H119.706H119.706H119.705H119.705H119.705H119.705H119.705H119.704H119.704H119.704H119.704H119.703H119.703H119.703H119.703H119.703H119.702H119.702H119.702H119.702H119.701H119.701H119.701H119.701H119.701H119.7H119.7H119.7H119.7H119.699H119.699H119.699H119.699H119.699H119.698H119.698H119.698H119.698H119.697H119.697H119.697H119.697H119.697H119.696H119.696H119.696H119.696H119.695H119.695H119.695H119.695H119.695H119.694H119.694H119.694H119.694H119.693H119.693H119.693H119.693H119.693H119.692H119.692H119.692H119.692H119.691H119.691H119.691H119.691H119.691H119.69H119.69H119.69H119.69H119.689H119.689H119.689H119.689H119.689H119.688H119.688H119.688H119.688H119.687H119.687H119.687H119.687H119.686H119.686H119.686H119.686H119.686H119.685H119.685H119.685H119.685H119.684H119.684H119.684H119.684H119.684H119.683H119.683H119.683H119.683H119.682H119.682H119.682H119.682H119.681H119.681H119.681H119.681H119.681H119.68H119.68H119.68H119.68H119.679H119.679H119.679H119.679H119.678H119.678H119.678H119.678H119.678H119.677H119.677H119.677H119.677H119.676H119.676H119.676H119.676H119.675H119.675H119.675H119.675H119.675H119.674H119.674H119.674H119.674H119.673H119.673H119.673H119.673H119.672H119.672H119.672H119.672H119.672H119.671H119.671H119.671H119.671H119.67H119.67H119.67H119.67H119.669H119.669H119.669H119.669H119.669H119.668H119.668H119.668H119.668H119.667H119.667H119.667H119.667H119.666H70.4999C69.3764 159.5 68.5415 158.675 68.5415 157.75C68.5415 145.095 71.8574 133.789 76.7264 124.914C81.6003 116.03 88.01 109.618 94.1663 106.704C98.0288 104.876 101.723 101.5 104.902 97.8811C108.088 94.255 110.788 90.3484 112.654 87.4179L113.255 86.4752L112.152 86.6559C109.325 87.1191 105.375 87.4999 99.9999 87.4999C91.7115 87.4999 85.8166 85.7015 81.4759 84.3773L81.4581 84.3719L81.4575 84.3717L81.4092 84.3569C78.995 83.6174 76.9789 82.9999 75.4165 82.9999C72.8141 82.9999 70.8201 83.528 69.4795 84.7544C68.1289 85.9899 67.5415 87.8407 67.5415 90.2499V99.25C67.5415 100.175 66.7065 101 65.5831 101H55.7497C54.6262 101 53.7913 100.175 53.7913 99.25V54.2501C53.7913 53.325 54.6262 52.5 55.7497 52.5H65.5831C66.7065 52.5 67.5413 53.3249 67.5413 54.2501V60.4915Z" fill="url(#paint0_linear)" stroke="black"/>
<defs>
<linearGradient id="paint0_linear" x1="99.9998" y1="52" x2="99.9998" y2="160" gradientUnits="userSpaceOnUse">
<stop stop-color="#541F1F"/>
<stop offset="0.0001" stop-color="#C17AFA"/>
<stop offset="0.9999" stop-color="#FFA722"/>
</linearGradient>
</defs>
</svg>
