<svg width="200" height="200" viewBox="0 0 200 200" fill="none" xmlns="http://www.w3.org/2000/svg">
<path d="M1.5 198.5H198.5V1.5H1.5V198.5Z" fill="url(#paint0_linear)" stroke="black" stroke-width="3"/>
<path d="M67.5413 61.478V60.4915V54.2501C67.5413 53.3249 66.7065 52.5 65.5831 52.5H55.7497C54.6263 52.5 53.7913 53.325 53.7913 54.2501V99.25C53.7913 100.175 54.6263 101 55.7497 101H65.5831C66.7066 101 67.5416 100.175 67.5416 99.25V90.2499C67.5416 87.8407 68.129 85.9899 69.4796 84.7544C70.8201 83.528 72.8141 82.9999 75.4166 82.9999C76.979 82.9999 78.9951 83.6174 81.4093 84.3569L81.4576 84.3717L81.4581 84.3719L81.4759 84.3773C85.8166 85.7015 91.7115 87.4999 100 87.4999C105.375 87.4999 109.325 87.1191 112.152 86.6559L113.255 86.4752L112.654 87.4179C110.788 90.3484 108.088 94.255 104.903 97.8811C101.723 101.5 98.0288 104.876 94.1663 106.704C88.0099 109.618 81.6004 116.03 76.7265 124.914C71.8575 133.789 68.5416 145.095 68.5416 157.75C68.5416 158.675 69.3765 159.5 70.5 159.5H119.667H119.667H119.667H119.667H119.667H119.668H119.668H119.668H119.668H119.669H119.669H119.669H119.669H119.67H119.67H119.67H119.67H119.67H119.671H119.671H119.671H119.671H119.672H119.672H119.672H119.672H119.673H119.673H119.673H119.673H119.673H119.674H119.674H119.674H119.674H119.675H119.675H119.675H119.675H119.676H119.676H119.676H119.676H119.676H119.677H119.677H119.677H119.677H119.678H119.678H119.678H119.678H119.679H119.679H119.679H119.679H119.679H119.68H119.68H119.68H119.68H119.681H119.681H119.681H119.681H119.682H119.682H119.682H119.682H119.682H119.683H119.683H119.683H119.683H119.684H119.684H119.684H119.684H119.684H119.685H119.685H119.685H119.685H119.686H119.686H119.686H119.686H119.687H119.687H119.687H119.687H119.687H119.688H119.688H119.688H119.688H119.689H119.689H119.689H119.689H119.689H119.69H119.69H119.69H119.69H119.691H119.691H119.691H119.691H119.692H119.692H119.692H119.692H119.692H119.693H119.693H119.693H119.693H119.694H119.694H119.694H119.694H119.694H119.695H119.695H119.695H119.695H119.696H119.696H119.696H119.696H119.696H119.697H119.697H119.697H119.697H119.698H119.698H119.698H119.698H119.698H119.699H119.699H119.699H119.699H119.7H119.7H119.7H119.7H119.7H119.701H119.701H119.701H119.701H119.702H119.702H119.702H119.702H119.702H119.703H119.703H119.703H119.703H119.704H119.704H119.704H119.704H119.704H119.705H119.705H119.705H119.705H119.705H119.706H119.706H119.706H119.706H119.707H119.707H119.707H119.707H119.707H119.708H119.708H119.708H119.708H119.709H119.709H119.709H119.709H119.709H119.71H119.71H119.71H119.71H119.71H119.711H119.711H119.711H119.711H119.711H119.712H119.712H119.712H119.712H119.713H119.713H119.713H119.713H119.713H119.714H119.714H119.714H119.714H119.714H119.715H119.715H119.715H119.715H119.716H119.716H119.716H119.716H119.716H119.717H119.717H119.717H119.717H119.717H119.718H119.718H119.718H119.718H119.718H119.719H119.719H119.719H119.719H119.719H119.72H119.72H119.72H119.72H119.72H119.721H119.721H119.721H119.721H119.721H119.722H119.722H119.722H119.722H119.723H119.723H119.723H119.723H119.723H119.724H119.724H119.724H119.724H119.724H119.725H119.725H119.725H119.725H119.725H119.726H119.726H119.726H119.726H119.726H119.727H119.727H119.727H119.727H119.727H119.727H119.728H119.728H119.728H119.728H119.728H119.729H119.729H119.729H119.729H119.729H119.73H119.73H119.73H119.73H119.73H119.731H119.731H119.731H119.731H119.731H119.732H119.732H119.732H119.732H119.732H119.733H119.733H119.733H119.733H119.733H119.733H119.734H119.734H119.734H119.734H119.734H119.735H119.735H119.735H119.735H119.735H119.736H119.736H119.736H119.736H119.736H119.736H119.737H119.737H119.737H119.737H119.737H119.738H119.738H119.738H119.738H119.738H119.738H119.739H119.739H119.739H119.739H119.739H119.74H119.74H119.74H119.74H119.74H119.74H119.741H119.741H119.741H119.741H119.741H119.741H119.742H119.742H119.742H119.742H119.742H119.743H119.743H119.743H119.743H119.743H119.743H119.744H119.744H119.744H119.744H119.744H119.744H119.745H119.745H119.745H119.745H119.745H119.745H119.746H119.746H119.746H119.746H119.746H119.746H119.747H119.747H119.747H119.747H119.747H119.747H119.748H119.748H119.748H119.748H119.748H119.748H119.749H119.749H119.749H119.749H119.749H119.749H119.75H119.75H119.75H119.75H119.75H119.75H119.75H119.751H119.751H119.751H119.751H119.751H119.751H119.752H119.752H119.752H119.752H119.752H119.752H119.753H119.753H119.753H119.753H119.753H119.753H119.753H119.754H119.754H119.754H119.754H119.754H119.754H119.754H119.755H119.755H119.755H119.755H119.755H119.755H119.756H119.756H119.756H119.756H119.756H119.756H119.756H119.757H119.757H119.757H119.757H119.757H119.757H119.757H119.758H119.758H119.758H119.758H119.758H119.758H119.758H119.758H119.759H119.759H119.759H119.759H119.759H119.759H119.759H119.76H119.76H119.76H119.76H119.76H119.76H119.76H119.761H119.761H119.761H119.761H119.761H119.761H119.761H119.761H119.762H119.762H119.762H119.762H119.762H119.762H119.762H119.762H119.763H119.763H119.763H119.763H119.763H119.763H119.763H119.763H119.764H119.764H119.764H119.764H119.764H119.764H119.764H119.764H119.765H119.765H119.765H119.765H119.765C120.888 159.5 121.723 158.675 121.723 157.75C121.723 157.37 121.587 157.012 121.345 156.717L121.298 156.659L121.27 156.591C120.34 154.336 116.708 144.878 116.708 135.25C116.708 133.779 117.061 131.611 117.673 128.96C118.287 126.299 119.171 123.117 120.252 119.602C122.412 112.572 125.365 104.192 128.536 95.9512C131.706 87.7107 135.097 79.6022 138.137 73.1163C139.656 69.8738 141.09 67.0313 142.367 64.7784C143.636 62.5395 144.773 60.8401 145.703 59.9201C146.394 59.2349 146.376 58.1925 145.653 57.5302L140.736 53.0303C140.35 52.6773 139.814 52.4992 139.2 52.5088C138.626 52.5441 138.115 52.7992 137.772 53.1976C137.707 53.2727 135.912 55.3354 132.782 57.3853C129.642 59.4408 125.134 61.5001 119.667 61.5001C114.219 61.5001 110.314 59.4423 106.297 57.3252L67.5413 61.478ZM67.5413 61.478L68.337 60.8947C73.1341 57.3778 81.393 52.5 90.1663 52.5C97.1127 52.5 101.941 55.0368 106.288 57.3206L106.296 57.3249L67.5413 61.478Z" fill="url(#paint1_linear)" stroke="black"/>
<defs>
<linearGradient id="paint0_linear" x1="190.666" y1="499.999" x2="190.666" y2="-299.999" gradientUnits="userSpaceOnUse">
<stop stop-color="#0B225B"/>
<stop offset="0.0001" stop-color="#4D0EB5"/>
<stop offset="0.9999" stop-color="#1728C4"/>
<stop offset="1" stop-color="#66039B" stop-opacity="0.937861"/>
</linearGradient>
<linearGradient id="paint1_linear" x1="99.9999" y1="52" x2="99.9999" y2="160" gradientUnits="userSpaceOnUse">
<stop stop-color="#541F1F"/>
<stop offset="0.0001" stop-color="#C17AFA"/>
<stop offset="0.9999" stop-color="#FFA722"/>
</linearGradient>
</defs>
</svg>
