<svg width="200" height="200" viewBox="0 0 200 200" fill="none" xmlns="http://www.w3.org/2000/svg">
<path d="M1.5 198.5H198.5V1.5H1.5V198.5Z" fill="#160B5B" stroke="black" stroke-width="3"/>
<path d="M87.818 149.429L148.04 82.5458L163.118 96.1221L102.896 163.005L87.818 149.429Z" fill="white"/>
<path d="M102.883 163.085L36 102.863L49.3826 88L116.266 148.222L102.883 163.085Z" fill="white"/>
<path d="M111.3 49.6558L51.0779 116.539L36 102.963L96.2218 36.0796L111.3 49.6558Z" fill="white"/>
<path d="M96.2346 36L163.118 96.2218L149.735 111.085L82.852 50.8629L96.2346 36Z" fill="white"/>
<path d="M105.724 54.1579L62.9977 101.611L49.495 89.4528L92.2217 42L105.724 54.1579Z" fill="white"/>
<path d="M158.209 100.186L111.704 151.683L99 138.5L144.641 87.7719L158.209 100.186Z" fill="white"/>
<path d="M73.9042 111.418L61.831 124.827L48.6734 112.98L60.7465 99.5711L73.9042 111.418Z" fill="white"/>
</svg>
